<svg width="276" height="275" viewBox="0 0 276 275" fill="none" xmlns="http://www.w3.org/2000/svg">
<circle cx="138" cy="137.5" r="136.5" fill="url(#paint0_radial_353_475)" stroke="#52B8C3" stroke-width="2"/>
<path d="M184.214 100.548H184.215L184.216 100.549C184.217 100.549 184.219 100.551 184.222 100.552C184.227 100.554 184.234 100.557 184.243 100.562C184.262 100.57 184.29 100.584 184.325 100.602C184.397 100.636 184.502 100.687 184.637 100.754C184.907 100.888 185.296 101.083 185.775 101.334C186.732 101.835 188.051 102.557 189.497 103.438C192.376 105.189 195.815 107.601 197.891 110.188C200.187 113.049 200.977 115.831 201.623 118.63C202.27 121.433 202.77 124.219 204.439 127.26C208.907 135.401 211.787 140.299 219.288 145.592C224.375 149.181 229.829 148.914 235.364 148.782C240.861 148.651 246.433 148.659 251.337 153.131C255.317 156.759 258.095 160.398 259.885 164.495C261.674 168.592 262.461 173.116 262.5 178.496C262.54 184.029 261.001 188.082 258.835 191.949C257.758 193.873 256.52 195.759 255.254 197.745C253.985 199.737 252.68 201.842 251.445 204.229C248.194 210.513 244.313 217.65 240.74 223.471C238.955 226.38 237.242 228.969 235.719 230.96C234.958 231.956 234.238 232.81 233.576 233.481C232.921 234.147 232.297 234.661 231.724 234.947C231.229 235.195 230.749 235.015 230.384 234.717C230.03 234.427 229.697 233.966 229.38 233.409C228.74 232.285 228.067 230.594 227.385 228.549C226.018 224.447 224.576 218.803 223.263 213.112C221.949 207.418 220.761 201.663 219.901 197.332C219.471 195.166 219.123 193.356 218.882 192.087C218.762 191.453 218.669 190.954 218.606 190.613C218.574 190.443 218.55 190.312 218.533 190.224C218.525 190.18 218.519 190.146 218.515 190.124C218.513 190.113 218.511 190.104 218.51 190.099C218.509 190.096 218.509 190.093 218.509 190.092V190.09L218.492 190.004C218.356 189.962 218.127 189.922 217.779 189.897C216.911 189.837 215.567 189.889 213.833 190.002C210.394 190.227 205.496 190.689 200.149 190.906C194.796 191.124 188.952 191.1 183.573 190.352C178.205 189.604 173.241 188.128 169.696 185.396C162.665 179.98 156.647 173.615 152.372 167.249C148.105 160.893 145.543 154.489 145.5 149.004C145.483 146.851 145.639 143.834 146.305 141.568C146.635 140.446 147.114 139.424 147.833 138.811C148.203 138.495 148.639 138.284 149.142 138.232C149.641 138.181 150.167 138.291 150.713 138.548C153 139.625 155.189 141.062 157.328 142.527C159.478 144 161.572 145.496 163.711 146.731C167.975 149.193 172.306 150.554 177.314 148.536C182.558 146.423 184.919 143.548 188.082 138.726C190.057 135.715 190.792 131.89 190.755 127.796C190.718 123.706 189.909 119.391 188.841 115.445C187.773 111.502 186.451 107.943 185.394 105.37C184.866 104.084 184.404 103.046 184.075 102.329C183.911 101.971 183.78 101.693 183.69 101.506C183.645 101.412 183.61 101.34 183.587 101.293C183.576 101.269 183.567 101.251 183.561 101.239C183.558 101.234 183.556 101.229 183.555 101.227C183.554 101.225 183.553 101.224 183.553 101.224V101.223L182.91 99.9316L184.214 100.548ZM194.517 132.374L185.022 168.856C185.021 168.859 185.02 168.862 185.02 168.864L185.017 168.874L185.982 169.136C186.09 168.75 186.304 168.535 186.627 168.42C186.986 168.292 187.516 168.276 188.242 168.414C189.691 168.69 191.681 169.534 194.057 170.792C198.792 173.299 204.874 177.35 210.849 181.382C216.807 185.402 222.664 189.407 226.907 191.786C229.012 192.966 230.793 193.79 232.013 193.979C232.61 194.072 233.236 194.04 233.656 193.626C234.085 193.204 234.12 192.565 233.99 191.904C232.108 182.279 228.995 177.326 224.442 168.766C220.139 160.676 212.858 151.515 206.672 144.395C203.576 140.83 200.747 137.769 198.693 135.599C197.665 134.514 196.831 133.651 196.253 133.06C195.965 132.764 195.74 132.536 195.587 132.382C195.511 132.305 195.453 132.246 195.413 132.206C195.394 132.186 195.379 132.171 195.369 132.161C195.364 132.156 195.36 132.153 195.358 132.15L194.737 131.529L194.517 132.374Z" fill="url(#paint1_radial_353_475)"/>
<path d="M171.892 236.8C186 246.426 204.435 221.893 205.813 240.774C215.529 241.626 221.092 240.648 231.949 227.432C239.358 219.544 242.671 214.86 235.563 202.451C238.501 170.795 231.411 193.957 223.886 197.341C221.327 198.491 225.368 177.623 213.042 193.366C211.83 186.449 202.316 200.54 196.916 204.722C191.927 208.584 157.784 227.173 171.892 236.8Z" fill="url(#paint2_linear_353_475)" stroke="#2B7C55"/>
<path d="M170.056 175.809L188.543 181.424L167.255 179.459L150.449 150.543L170.056 175.809Z" fill="url(#paint3_linear_353_475)"/>
<path d="M188.543 171.598C184.013 176.295 174.372 166.368 173.978 160.088C173.583 153.807 193.665 142.193 193.025 149.139C192.694 152.728 198.038 158.927 195.826 160.088C191.39 162.413 193.073 166.901 188.543 171.598Z" fill="url(#paint4_linear_353_475)"/>
<path d="M202.828 172.44C204.555 172.124 199.824 162.714 198.066 163.457C195.298 164.625 194.787 168.688 196.666 171.036C198.21 172.966 200.4 172.885 202.828 172.44Z" fill="url(#paint5_linear_353_475)"/>
<path d="M205.629 143.524C206.326 140.193 211.036 150.715 207.87 151.946C205.965 152.687 201.637 152.207 202.828 150.543C203.446 149.68 205.219 145.486 205.629 143.524Z" fill="url(#paint6_linear_353_475)"/>
<path d="M196.666 126.119C196.918 123.786 195.365 121.286 193.025 121.346C190.163 121.419 191.381 125.891 192.184 128.645C192.97 131.34 193.996 133.41 196.666 134.26C199.107 135.037 195.968 132.575 196.666 126.119Z" fill="url(#paint7_linear_353_475)"/>
<path d="M193.025 110.959C195.104 111.171 191.109 116.07 189.383 114.889C187.837 113.831 188.303 109.213 189.943 110.117C190.94 110.665 192.098 110.864 193.025 110.959Z" fill="url(#paint8_linear_353_475)"/>
<path d="M157.732 150.543L155.211 138.471L161.933 146.332L167.255 160.088L157.732 150.543Z" fill="url(#paint9_linear_353_475)"/>
<path d="M238.681 179.459C234.803 179.002 231.528 184.297 228.877 181.424C227.08 179.476 228.169 171.748 221.596 171.598C217.173 171.497 215.341 169.053 220.475 164.86C223.108 162.711 225.648 166.053 228.877 167.106C232.798 168.386 235.526 168.375 238.681 171.036C244.094 175.603 250.708 171.987 251.285 174.405C252.151 178.031 250.348 181.697 246.804 182.827C243.532 183.871 242.091 179.86 238.681 179.459Z" fill="url(#paint10_linear_353_475)"/>
<path d="M122.159 149.139C122.255 148.136 119.503 144.108 118.238 143.524C116.097 142.537 114.707 147.163 115.997 149.139C117.315 151.157 121.93 151.54 122.159 149.139Z" fill="url(#paint11_linear_353_475)"/>
<path d="M170.056 175.809L188.543 181.424L167.255 179.459L150.449 150.543L170.056 175.809Z" stroke="#2B7C55"/>
<path d="M188.543 171.598C184.013 176.295 174.372 166.368 173.978 160.088C173.583 153.807 193.665 142.193 193.025 149.139C192.694 152.728 198.038 158.927 195.826 160.088C191.39 162.413 193.073 166.901 188.543 171.598Z" stroke="#2B7C55"/>
<path d="M202.828 172.44C204.555 172.124 199.824 162.714 198.066 163.457C195.298 164.625 194.787 168.688 196.666 171.036C198.21 172.966 200.4 172.885 202.828 172.44Z" stroke="#2B7C55"/>
<path d="M205.629 143.524C206.326 140.193 211.036 150.715 207.87 151.946C205.965 152.687 201.637 152.207 202.828 150.543C203.446 149.68 205.219 145.486 205.629 143.524Z" stroke="#2B7C55"/>
<path d="M196.666 126.119C196.918 123.786 195.365 121.286 193.025 121.346C190.163 121.419 191.381 125.891 192.184 128.645C192.97 131.34 193.996 133.41 196.666 134.26C199.107 135.037 195.968 132.575 196.666 126.119Z" stroke="#2B7C55"/>
<path d="M193.025 110.959C195.104 111.171 191.109 116.07 189.383 114.889C187.837 113.831 188.303 109.213 189.943 110.117C190.94 110.665 192.098 110.864 193.025 110.959Z" stroke="#2B7C55"/>
<path d="M157.732 150.543L155.211 138.471L161.933 146.332L167.255 160.088L157.732 150.543Z" stroke="#2B7C55"/>
<path d="M238.681 179.459C234.803 179.002 231.528 184.297 228.877 181.424C227.08 179.476 228.169 171.748 221.596 171.598C217.173 171.497 215.341 169.053 220.475 164.86C223.108 162.711 225.648 166.053 228.877 167.106C232.798 168.386 235.526 168.375 238.681 171.036C244.094 175.603 250.708 171.987 251.285 174.405C252.151 178.031 250.348 181.697 246.804 182.827C243.532 183.871 242.091 179.86 238.681 179.459Z" stroke="#2B7C55"/>
<path d="M122.159 149.139C122.255 148.136 119.503 144.108 118.238 143.524C116.097 142.537 114.707 147.163 115.997 149.139C117.315 151.157 121.93 151.54 122.159 149.139Z" stroke="#2B7C55"/>
<path d="M206.386 22.2324C165.798 -0.716314 90.94 18.4996 72.3109 19.1495C53.6819 19.7993 16.3662 65.6225 19.2394 69.3166H26.7811C28.7487 61.0872 60.6353 69.4759 45.7752 72.6798C36.8225 74.61 -4.79375 75.3983 37.1161 81.9285C38.6293 94.7129 29.5102 96.6447 6.94915 96.7825C5.29841 95.2744 -5.21591 137.349 4.71458 173.294C13.9325 212.775 54.9089 250.85 50.5237 230.188C46.1385 209.526 40.0405 202.06 48.0098 189.83C49.4582 183.171 40.4612 175.558 42.4233 168.81C48.8454 146.724 65.8321 128.465 50.5237 137.421C29.7461 120.241 24.9125 96.827 32.0883 100.987C35.1405 102.756 39.4742 121.265 48.0098 127.331C57.7272 134.237 69.7002 128.312 75.6628 114.439C76.7776 111.845 48.0098 92.2983 70.635 102.388C93.2602 112.477 87.6022 104.625 96.0535 110.796C107.585 119.215 113.93 142.746 113.93 142.746C126.897 143.889 123.069 110.918 133.483 113.038C143.021 114.98 166.969 152.817 175.102 137.981C178.857 135.27 164.947 126.638 166.722 119.204C168.362 114.087 183.52 112.058 187.392 104.91C190.501 99.1727 158.858 65.1751 191.303 88.6548C182.255 79.1671 188.528 69.9784 191.303 63.1509C195.043 53.9484 171.009 26.9874 186.275 38.2075C201.541 49.4276 218.087 59.0341 198.286 34.2837C198.286 34.2837 211.315 25.0192 206.386 22.2324Z" fill="url(#paint12_linear_353_475)" stroke="#2B7C55"/>
<path d="M206.251 77.5401C203.762 72.3281 203.73 66.7406 198.172 65.1492C190.326 62.9026 208.594 86.7816 200.48 85.8968C194.951 85.2939 190.046 97.8789 196.73 97.9996C199.512 98.0498 198.477 93.8776 200.48 91.9482C203.388 89.1478 208.272 91.5593 210.001 87.9139C211.848 84.0216 208.107 81.4279 206.251 77.5401Z" fill="url(#paint13_linear_353_475)" stroke="#2B7C55"/>
<path d="M64.4866 215.26C72.9602 221.628 65.9417 184.741 62.3038 187.11C59.4101 188.993 56.5068 190.907 57.1197 194.356C57.9241 198.883 60.5749 202.053 57.1197 207.177C54.6456 210.846 60.0876 211.954 64.4866 215.26Z" fill="url(#paint14_linear_353_475)" stroke="#2B7C55"/>
<defs>
<radialGradient id="paint0_radial_353_475" cx="0" cy="0" r="1" gradientUnits="userSpaceOnUse" gradientTransform="translate(145.209 137.767) rotate(-92.8899) scale(137.942)">
<stop offset="0.1" stop-color="#72BCD0"/>
<stop offset="0.596154" stop-color="#A6DAE8"/>
<stop offset="0.7" stop-color="#B6E4F0"/>
<stop offset="0.9999" stop-color="#A6DAE8"/>
</radialGradient>
<radialGradient id="paint1_radial_353_475" cx="0" cy="0" r="1" gradientUnits="userSpaceOnUse" gradientTransform="translate(204 167.498) rotate(90) scale(67.566 58.501)">
<stop offset="0.00480769" stop-color="#F7B283"/>
<stop offset="0.538462" stop-color="#EA701F"/>
</radialGradient>
<linearGradient id="paint2_linear_353_475" x1="243.676" y1="211.126" x2="217.177" y2="248.248" gradientUnits="userSpaceOnUse">
<stop stop-color="#28852F"/>
<stop offset="1" stop-color="#19521D"/>
</linearGradient>
<linearGradient id="paint3_linear_353_475" x1="259.5" y1="143.349" x2="229.942" y2="203.107" gradientUnits="userSpaceOnUse">
<stop stop-color="#28852F"/>
<stop offset="1" stop-color="#19521D"/>
</linearGradient>
<linearGradient id="paint4_linear_353_475" x1="259.5" y1="143.349" x2="229.942" y2="203.107" gradientUnits="userSpaceOnUse">
<stop stop-color="#28852F"/>
<stop offset="1" stop-color="#19521D"/>
</linearGradient>
<linearGradient id="paint5_linear_353_475" x1="259.5" y1="143.349" x2="229.942" y2="203.107" gradientUnits="userSpaceOnUse">
<stop stop-color="#28852F"/>
<stop offset="1" stop-color="#19521D"/>
</linearGradient>
<linearGradient id="paint6_linear_353_475" x1="259.5" y1="143.349" x2="229.942" y2="203.107" gradientUnits="userSpaceOnUse">
<stop stop-color="#28852F"/>
<stop offset="1" stop-color="#19521D"/>
</linearGradient>
<linearGradient id="paint7_linear_353_475" x1="259.5" y1="143.349" x2="229.942" y2="203.107" gradientUnits="userSpaceOnUse">
<stop stop-color="#28852F"/>
<stop offset="1" stop-color="#19521D"/>
</linearGradient>
<linearGradient id="paint8_linear_353_475" x1="259.5" y1="143.349" x2="229.942" y2="203.107" gradientUnits="userSpaceOnUse">
<stop stop-color="#28852F"/>
<stop offset="1" stop-color="#19521D"/>
</linearGradient>
<linearGradient id="paint9_linear_353_475" x1="259.5" y1="143.349" x2="229.942" y2="203.107" gradientUnits="userSpaceOnUse">
<stop stop-color="#28852F"/>
<stop offset="1" stop-color="#19521D"/>
</linearGradient>
<linearGradient id="paint10_linear_353_475" x1="259.5" y1="143.349" x2="229.942" y2="203.107" gradientUnits="userSpaceOnUse">
<stop stop-color="#28852F"/>
<stop offset="1" stop-color="#19521D"/>
</linearGradient>
<linearGradient id="paint11_linear_353_475" x1="259.5" y1="143.349" x2="229.942" y2="203.107" gradientUnits="userSpaceOnUse">
<stop stop-color="#28852F"/>
<stop offset="1" stop-color="#19521D"/>
</linearGradient>
<linearGradient id="paint12_linear_353_475" x1="219.676" y1="113.789" x2="105.052" y2="228.225" gradientUnits="userSpaceOnUse">
<stop stop-color="#28852F"/>
<stop offset="1" stop-color="#19521D"/>
</linearGradient>
<linearGradient id="paint13_linear_353_475" x1="211.5" y1="80.0757" x2="197.179" y2="88.0814" gradientUnits="userSpaceOnUse">
<stop stop-color="#28852F"/>
<stop offset="1" stop-color="#19521D"/>
</linearGradient>
<linearGradient id="paint14_linear_353_475" x1="69.2059" y1="200.248" x2="58.1643" y2="205.206" gradientUnits="userSpaceOnUse">
<stop stop-color="#28852F"/>
<stop offset="1" stop-color="#19521D"/>
</linearGradient>
</defs>
</svg>
