<svg width="303" height="302" viewBox="0 0 303 302" fill="none" xmlns="http://www.w3.org/2000/svg">
<path d="M151.5 6C226.816 6 288 71.9641 288 153.5C288 235.036 226.816 301 151.5 301C76.1842 301 15 235.036 15 153.5C15 71.9641 76.1842 6 151.5 6Z" fill="url(#paint0_radial_353_424)" stroke="#52B8C3" stroke-width="2"/>
<path d="M224.733 101.124L183.509 95.7202L39 111.933L64.3684 260.302C73.3325 262.255 77.254 260.642 78.8647 244.581C86.5471 231.35 96.1669 229.483 109.216 224.93C144.462 212.63 160.269 210.096 203.895 230.334L247.836 257.355C264.868 238.739 270.909 225.747 280 201.348C243.201 165.594 227.807 139.005 224.733 101.124Z" fill="url(#paint1_radial_353_424)" stroke="#EA701F"/>
<path d="M185.392 260.744C199.5 271.14 217.935 244.644 219.313 265.036C229.029 265.956 234.592 264.9 245.449 250.626C252.858 242.107 256.171 237.048 249.063 223.646C252.001 189.458 244.911 214.474 237.386 218.128C234.827 219.37 238.868 196.833 226.542 213.836C225.33 206.365 215.816 221.583 210.416 226.099C205.427 230.271 171.284 250.347 185.392 260.744Z" fill="url(#paint2_linear_353_424)" stroke="#2B7C55"/>
<path d="M183.556 194.874L202.043 200.937L180.755 198.815L163.949 167.586L183.556 194.874Z" fill="url(#paint3_linear_353_424)"/>
<path d="M202.043 190.326C197.513 195.399 187.872 184.677 187.478 177.895C187.083 171.112 207.165 158.568 206.525 166.07C206.194 169.946 211.538 176.641 209.326 177.895C204.89 180.406 206.573 185.252 202.043 190.326Z" fill="url(#paint4_linear_353_424)"/>
<path d="M216.328 191.235C218.055 190.894 213.324 180.731 211.566 181.533C208.798 182.795 208.287 187.183 210.166 189.719C211.71 191.803 213.9 191.715 216.328 191.235Z" fill="url(#paint5_linear_353_424)"/>
<path d="M219.129 160.006C219.826 156.408 224.536 167.772 221.37 169.102C219.465 169.902 215.137 169.383 216.328 167.586C216.946 166.654 218.719 162.124 219.129 160.006Z" fill="url(#paint6_linear_353_424)"/>
<path d="M210.166 141.208C210.418 138.689 208.865 135.989 206.525 136.053C203.663 136.133 204.881 140.962 205.684 143.937C206.47 146.847 207.496 149.083 210.166 150.001C212.607 150.84 209.468 148.18 210.166 141.208Z" fill="url(#paint7_linear_353_424)"/>
<path d="M206.525 124.835C208.604 125.064 204.609 130.356 202.883 129.08C201.337 127.937 201.803 122.95 203.443 123.926C204.44 124.519 205.598 124.733 206.525 124.835Z" fill="url(#paint8_linear_353_424)"/>
<path d="M171.232 167.586L168.711 154.548L175.433 163.038L180.755 177.895L171.232 167.586Z" fill="url(#paint9_linear_353_424)"/>
<path d="M252.181 198.815C248.303 198.322 245.028 204.04 242.377 200.937C240.58 198.834 241.669 190.488 235.096 190.326C230.673 190.217 228.841 187.577 233.975 183.049C236.608 180.727 239.148 184.337 242.377 185.475C246.298 186.856 249.026 186.845 252.181 189.719C257.594 194.651 264.208 190.746 264.785 193.358C265.651 197.273 263.848 201.233 260.304 202.453C257.032 203.58 255.591 199.249 252.181 198.815Z" fill="url(#paint10_linear_353_424)"/>
<path d="M135.659 166.07C135.755 164.986 133.003 160.637 131.738 160.006C129.597 158.939 128.207 163.936 129.497 166.07C130.815 168.249 135.43 168.663 135.659 166.07Z" fill="url(#paint11_linear_353_424)"/>
<path d="M183.556 194.874L202.043 200.937L180.755 198.815L163.949 167.586L183.556 194.874Z" stroke="#2B7C55"/>
<path d="M202.043 190.326C197.513 195.399 187.872 184.677 187.478 177.895C187.083 171.112 207.165 158.568 206.525 166.07C206.194 169.946 211.538 176.641 209.326 177.895C204.89 180.406 206.573 185.252 202.043 190.326Z" stroke="#2B7C55"/>
<path d="M216.328 191.235C218.055 190.894 213.324 180.731 211.566 181.533C208.798 182.795 208.287 187.183 210.166 189.719C211.71 191.803 213.9 191.715 216.328 191.235Z" stroke="#2B7C55"/>
<path d="M219.129 160.006C219.826 156.408 224.536 167.772 221.37 169.102C219.465 169.902 215.137 169.383 216.328 167.586C216.946 166.654 218.719 162.124 219.129 160.006Z" stroke="#2B7C55"/>
<path d="M210.166 141.208C210.418 138.689 208.865 135.989 206.525 136.053C203.663 136.133 204.881 140.962 205.684 143.937C206.47 146.847 207.496 149.083 210.166 150.001C212.607 150.84 209.468 148.18 210.166 141.208Z" stroke="#2B7C55"/>
<path d="M206.525 124.835C208.604 125.064 204.609 130.356 202.883 129.08C201.337 127.937 201.803 122.95 203.443 123.926C204.44 124.519 205.598 124.733 206.525 124.835Z" stroke="#2B7C55"/>
<path d="M171.232 167.586L168.711 154.548L175.433 163.038L180.755 177.895L171.232 167.586Z" stroke="#2B7C55"/>
<path d="M252.181 198.815C248.303 198.322 245.028 204.04 242.377 200.937C240.58 198.834 241.669 190.488 235.096 190.326C230.673 190.217 228.841 187.577 233.975 183.049C236.608 180.727 239.148 184.337 242.377 185.475C246.298 186.856 249.026 186.845 252.181 189.719C257.594 194.651 264.208 190.746 264.785 193.358C265.651 197.273 263.848 201.233 260.304 202.453C257.032 203.58 255.591 199.249 252.181 198.815Z" stroke="#2B7C55"/>
<path d="M135.659 166.07C135.755 164.986 133.003 160.637 131.738 160.006C129.597 158.939 128.207 163.936 129.497 166.07C130.815 168.249 135.43 168.663 135.659 166.07Z" stroke="#2B7C55"/>
<path d="M219.886 29.0108C179.298 4.22626 104.44 24.9795 85.8109 25.6813C67.1819 26.3831 29.8662 75.8722 32.7394 79.8618H40.2811C42.2487 70.9741 74.1353 80.0339 59.2752 83.494C50.3225 85.5787 8.70625 86.43 50.6161 93.4827C52.1293 107.29 43.0102 109.376 20.4491 109.525C18.7984 107.896 8.28409 153.336 18.2146 192.158C27.4325 234.796 68.4089 275.918 64.0237 253.603C59.6385 231.288 53.5405 223.224 61.5098 210.016C62.9582 202.825 53.9612 194.603 55.9233 187.315C62.3454 163.462 79.3321 143.742 64.0237 153.414C43.2461 134.86 38.4125 109.573 45.5883 114.065C48.6405 115.976 52.9742 135.966 61.5098 142.518C71.2272 149.976 83.2002 143.577 89.1628 128.594C90.2776 125.793 61.5098 104.682 84.135 115.579C106.76 126.475 101.102 117.995 109.553 124.659C121.085 133.752 127.43 159.165 127.43 159.165C140.397 160.401 136.569 124.791 146.983 127.081C156.521 129.178 180.469 170.042 188.602 154.02C192.357 151.091 178.447 141.769 180.222 133.74C181.862 128.213 197.02 126.022 200.892 118.303C204.001 112.106 172.358 75.3889 204.803 100.747C195.755 90.5004 202.028 80.5766 204.803 73.2029C208.543 63.2642 184.509 34.1463 199.775 46.264C215.041 58.3817 231.587 68.7567 211.786 42.0263C211.786 42.0263 224.815 32.0206 219.886 29.0108Z" fill="url(#paint12_linear_353_424)" stroke="#2B7C55"/>
<path d="M219.751 88.7435C217.262 83.1145 217.23 77.08 211.672 75.3614C203.826 72.935 222.094 98.7243 213.98 97.7687C208.451 97.1176 203.546 110.709 210.23 110.84C213.012 110.894 211.977 106.388 213.98 104.304C216.888 101.28 221.772 103.884 223.501 99.9472C225.348 95.7435 221.607 92.9423 219.751 88.7435Z" fill="url(#paint13_linear_353_424)" stroke="#2B7C55"/>
<path d="M77.9866 237.481C86.4602 244.359 79.4417 204.521 75.8038 207.078C72.9101 209.113 70.0068 211.18 70.6197 214.905C71.4241 219.793 74.0749 223.217 70.6197 228.751C68.1456 232.714 73.5876 233.91 77.9866 237.481Z" fill="url(#paint14_linear_353_424)" stroke="#2B7C55"/>
<defs>
<radialGradient id="paint0_radial_353_424" cx="0" cy="0" r="1" gradientTransform="matrix(-6.9546 -148.788 137.767 -7.51097 158.709 153.788)" gradientUnits="userSpaceOnUse">
<stop offset="0.1" stop-color="#72BCD0"/>
<stop offset="0.596154" stop-color="#A6DAE8"/>
<stop offset="0.7" stop-color="#B6E4F0"/>
<stop offset="0.9999" stop-color="#A6DAE8"/>
</radialGradient>
<radialGradient id="paint1_radial_353_424" cx="0" cy="0" r="1" gradientUnits="userSpaceOnUse" gradientTransform="translate(159.5 178.34) rotate(90) scale(82.62 120.5)">
<stop offset="0.00480769" stop-color="#F7B283"/>
<stop offset="0.538462" stop-color="#EA701F"/>
</radialGradient>
<linearGradient id="paint2_linear_353_424" x1="257.176" y1="233.016" x2="227.911" y2="270.976" gradientUnits="userSpaceOnUse">
<stop stop-color="#28852F"/>
<stop offset="1" stop-color="#19521D"/>
</linearGradient>
<linearGradient id="paint3_linear_353_424" x1="273" y1="159.817" x2="239.615" y2="222.311" gradientUnits="userSpaceOnUse">
<stop stop-color="#28852F"/>
<stop offset="1" stop-color="#19521D"/>
</linearGradient>
<linearGradient id="paint4_linear_353_424" x1="273" y1="159.817" x2="239.615" y2="222.311" gradientUnits="userSpaceOnUse">
<stop stop-color="#28852F"/>
<stop offset="1" stop-color="#19521D"/>
</linearGradient>
<linearGradient id="paint5_linear_353_424" x1="273" y1="159.817" x2="239.615" y2="222.311" gradientUnits="userSpaceOnUse">
<stop stop-color="#28852F"/>
<stop offset="1" stop-color="#19521D"/>
</linearGradient>
<linearGradient id="paint6_linear_353_424" x1="273" y1="159.817" x2="239.615" y2="222.311" gradientUnits="userSpaceOnUse">
<stop stop-color="#28852F"/>
<stop offset="1" stop-color="#19521D"/>
</linearGradient>
<linearGradient id="paint7_linear_353_424" x1="273" y1="159.817" x2="239.615" y2="222.311" gradientUnits="userSpaceOnUse">
<stop stop-color="#28852F"/>
<stop offset="1" stop-color="#19521D"/>
</linearGradient>
<linearGradient id="paint8_linear_353_424" x1="273" y1="159.817" x2="239.615" y2="222.311" gradientUnits="userSpaceOnUse">
<stop stop-color="#28852F"/>
<stop offset="1" stop-color="#19521D"/>
</linearGradient>
<linearGradient id="paint9_linear_353_424" x1="273" y1="159.817" x2="239.615" y2="222.311" gradientUnits="userSpaceOnUse">
<stop stop-color="#28852F"/>
<stop offset="1" stop-color="#19521D"/>
</linearGradient>
<linearGradient id="paint10_linear_353_424" x1="273" y1="159.817" x2="239.615" y2="222.311" gradientUnits="userSpaceOnUse">
<stop stop-color="#28852F"/>
<stop offset="1" stop-color="#19521D"/>
</linearGradient>
<linearGradient id="paint11_linear_353_424" x1="273" y1="159.817" x2="239.615" y2="222.311" gradientUnits="userSpaceOnUse">
<stop stop-color="#28852F"/>
<stop offset="1" stop-color="#19521D"/>
</linearGradient>
<linearGradient id="paint12_linear_353_424" x1="233.176" y1="127.892" x2="109.764" y2="241.975" gradientUnits="userSpaceOnUse">
<stop stop-color="#28852F"/>
<stop offset="1" stop-color="#19521D"/>
</linearGradient>
<linearGradient id="paint13_linear_353_424" x1="225" y1="91.482" x2="210.176" y2="99.1553" gradientUnits="userSpaceOnUse">
<stop stop-color="#28852F"/>
<stop offset="1" stop-color="#19521D"/>
</linearGradient>
<linearGradient id="paint14_linear_353_424" x1="82.7059" y1="221.268" x2="71.3935" y2="225.972" gradientUnits="userSpaceOnUse">
<stop stop-color="#28852F"/>
<stop offset="1" stop-color="#19521D"/>
</linearGradient>
</defs>
</svg>
