<svg width="275" height="275" viewBox="0 0 275 275" fill="none" xmlns="http://www.w3.org/2000/svg">
<circle cx="137.5" cy="137.5" r="136.5" fill="url(#paint0_radial_353_491)" stroke="#52B8C3" stroke-width="2"/>
<path d="M66.7761 106.583C70.0696 96.8701 35.8103 98.223 44.3809 101.162C49.2885 102.845 59.8059 110.749 61.7564 113.36C63.7262 115.997 65.6723 109.839 66.7761 106.583Z" fill="url(#paint1_radial_353_491)" stroke="url(#paint2_radial_353_491)"/>
<path d="M63.0268 112.3C63.4165 109.544 64.4915 104.757 66.7012 106.299C69.1376 108 75.5058 109.975 78.9493 110.586C85.1127 111.678 62.1089 118.792 63.0268 112.3Z" fill="url(#paint3_radial_353_491)" stroke="url(#paint4_radial_353_491)"/>
<path d="M257.156 182.066C261.289 158.888 261.471 149.194 274 144.309L273.465 128.778C273.465 128.778 236.601 91.3599 251.542 95.573C264.154 99.1297 273.465 121.012 273.465 121.012C270.328 99.3924 266.438 87.7403 254.75 67.9915C254.75 67.9915 242.417 73.1629 241.115 67.9915C239.874 63.0634 251.274 61.8326 251.274 61.8326C244.407 51.1837 239.836 46.2141 231.222 38C231.222 38 216.445 38.9508 208.23 43.0879C193.658 50.4254 168.963 67.6947 182.83 76.2928C194.208 83.3468 200.998 62.8335 214.379 62.9037C231.124 62.9916 241.115 74.1505 251.542 84.3262C261.969 94.5019 190.368 79.7521 184.167 82.9873C177.966 86.2225 149.199 106.2 168.66 133.062C177.897 145.811 193.337 139.054 208.23 140.56C223.122 142.067 211.504 220.098 222.667 214.736C238.51 207.126 253.024 205.245 257.156 182.066Z" fill="url(#paint5_linear_353_491)" stroke="#2B7C55"/>
<path d="M43.5952 66.0039C64.0355 67.1344 84.8963 95.8334 65.9982 96.5039C53.907 96.9329 37.5377 76.2306 29.3752 87.9335C34.1874 82.929 59.287 123.067 63.2326 120.004C67.2957 116.849 104.428 122.939 99 133C99 133 117 139.5 130 150.5C143 161.5 108.913 163.03 91.0018 161.5L63.2312 136.504C59.1077 126.634 17.4967 119.395 14.0234 94.8911L43.5952 66.0039Z" fill="url(#paint6_radial_353_491)"/>
<path d="M43.5952 66.0039C64.0355 67.1344 84.8963 95.8334 65.9982 96.5039C53.7187 96.9396 37.0269 75.5809 29 88.5039C32.6718 80.497 59.1694 123.159 63.2326 120.004C67.2957 116.849 104.428 122.939 99 133C99 133 117 139.5 130 150.5C143 161.5 108.913 163.03 91.0018 161.5L63.2312 136.504C59.1077 126.634 17.4967 119.395 14.0234 94.8911L43.5952 66.0039Z" stroke="url(#paint7_radial_353_491)"/>
<path d="M115.363 21.6565C127.891 17.0065 125.671 13.0184 109.018 4H106.639C85.9726 8.50034 57.2025 26.7394 50.8577 32.8925C44.513 39.0455 8.60761 68.6192 12.2602 95.4928C15.6003 120.068 55.6163 127.328 59.5818 137.226C63.5473 147.125 53.1615 152.744 55.6163 162.374C58.4648 173.547 71.5925 173.444 75.1795 184.31C68.559 209.025 93.4651 253.081 101.352 250.924C109.238 248.766 92.0989 227.649 92.3633 222.031C92.6276 216.413 153.12 175.978 131.225 156.221C101.379 129.288 61.3568 113.117 59.5818 127.328C45.0736 103.121 38.6106 97.3881 29.7084 95.4928C30.7225 83.602 53.4308 86.4155 62.2255 92.5501C73.6348 100.508 78.3127 56.6647 98.4437 50.549C106.75 48.0256 114.124 56.3279 120.651 50.549C130.562 41.7731 111.287 27.8171 98.4437 24.8668C86.5303 22.13 71.7408 42.2972 69.099 35.8352C66.4573 29.3732 103.722 4.56482 102.409 14.9684C101.097 25.3721 106.747 27.0063 115.363 21.6565Z" fill="url(#paint8_linear_353_491)" stroke="#2B7C55"/>
<path d="M134.082 29.4265C128.234 19.9754 127.765 13.9569 128.07 1C151.795 1.02325 165.178 1.27587 180 7.64185C162.39 14.3576 138.852 37.1368 134.082 29.4265Z" fill="url(#paint9_linear_353_491)" stroke="#2B7C55"/>
<path d="M64.8507 106.056C67.0464 99.5801 44.2069 100.482 49.9206 102.441C53.1923 103.563 60.2039 108.833 61.5043 110.574C62.8175 112.331 64.1148 108.226 64.8507 106.056Z" fill="url(#paint10_linear_353_491)" stroke="#2B7C55"/>
<path d="M65.0173 112.2C65.2695 110.363 65.9651 107.171 67.3949 108.199C68.9714 109.333 73.092 110.65 75.3201 111.057C79.3082 111.786 64.4234 116.528 65.0173 112.2Z" fill="url(#paint11_linear_353_491)" stroke="#2B7C55"/>
<path d="M215.792 33.9561C218.978 39.9417 222.431 38.474 228 34.7633L213.622 24C203.318 30.6336 200.219 33.8752 215.792 33.9561Z" fill="url(#paint12_linear_353_491)" stroke="#2B7C55"/>
<path d="M197.725 38.2862C202.345 43.3878 203.362 46.035 192.14 49C191.966 48.7371 191.796 48.4774 191.631 48.2209C189.447 46.4971 181.428 48.2458 182.032 47.0264C182.987 45.0984 186.807 36.4808 187.352 39.132C187.861 41.608 189.298 44.596 191.631 48.2209C191.892 48.4272 192.07 48.6832 192.14 49C193.375 45.4447 193.281 43.5395 192.14 40.2598C186.051 31.9717 188.383 32.548 197.725 38.2862Z" fill="url(#paint13_linear_353_491)"/>
<path d="M192.14 49C203.362 46.035 202.345 43.3878 197.725 38.2862C188.383 32.548 186.051 31.9717 192.14 40.2598C193.281 43.5395 193.375 45.4447 192.14 49ZM192.14 49C189.506 45.0214 187.897 41.7831 187.352 39.132C186.807 36.4808 182.987 45.0984 182.032 47.0264C181.356 48.3917 191.49 46.0361 192.14 49Z" stroke="#2B7C55"/>
<path d="M172.621 25.8447C175.288 24.6809 180.715 22.9016 184.936 23.1969C191.212 23.6361 167.618 13.6739 169.064 20.2549C169.629 22.8291 170.342 26.8395 172.621 25.8447Z" fill="url(#paint14_linear_353_491)" stroke="#2B7C55"/>
<defs>
<radialGradient id="paint0_radial_353_491" cx="0" cy="0" r="1" gradientUnits="userSpaceOnUse" gradientTransform="translate(144.709 137.767) rotate(-92.8899) scale(137.942)">
<stop offset="0.1" stop-color="#72BCD0"/>
<stop offset="0.596154" stop-color="#A6DAE8"/>
<stop offset="0.7" stop-color="#B6E4F0"/>
<stop offset="0.9999" stop-color="#A6DAE8"/>
</radialGradient>
<radialGradient id="paint1_radial_353_491" cx="0" cy="0" r="1" gradientUnits="userSpaceOnUse" gradientTransform="translate(55 106.5) rotate(90) scale(7.5 12)">
<stop offset="0.00480769" stop-color="#F7B283"/>
<stop offset="0.538462" stop-color="#EA701F"/>
</radialGradient>
<radialGradient id="paint2_radial_353_491" cx="0" cy="0" r="1" gradientUnits="userSpaceOnUse" gradientTransform="translate(55 106.5) rotate(90) scale(7.5 12)">
<stop offset="0.00480769" stop-color="#F7B283"/>
<stop offset="0.538462" stop-color="#EA701F"/>
</radialGradient>
<radialGradient id="paint3_radial_353_491" cx="0" cy="0" r="1" gradientUnits="userSpaceOnUse" gradientTransform="translate(71.5 110.5) rotate(90) scale(4.5 8.5)">
<stop offset="0.00480769" stop-color="#F7B283"/>
<stop offset="0.538462" stop-color="#EA701F"/>
</radialGradient>
<radialGradient id="paint4_radial_353_491" cx="0" cy="0" r="1" gradientUnits="userSpaceOnUse" gradientTransform="translate(71.5 110.5) rotate(90) scale(4.5 8.5)">
<stop offset="0.00480769" stop-color="#F7B283"/>
<stop offset="0.538462" stop-color="#EA701F"/>
</radialGradient>
<linearGradient id="paint5_linear_353_491" x1="280.588" y1="118.861" x2="196.434" y2="176.646" gradientUnits="userSpaceOnUse">
<stop stop-color="#28852F"/>
<stop offset="1" stop-color="#19521D"/>
</linearGradient>
<radialGradient id="paint6_radial_353_491" cx="0" cy="0" r="1" gradientUnits="userSpaceOnUse" gradientTransform="translate(73.4552 114.002) rotate(90) scale(47.998 59.4317)">
<stop offset="0.00480769" stop-color="#F7B283"/>
<stop offset="0.538462" stop-color="#EA701F"/>
</radialGradient>
<radialGradient id="paint7_radial_353_491" cx="0" cy="0" r="1" gradientUnits="userSpaceOnUse" gradientTransform="translate(73.4552 114.002) rotate(90) scale(47.998 59.4317)">
<stop offset="0.00480769" stop-color="#F7B283"/>
<stop offset="0.538462" stop-color="#EA701F"/>
</radialGradient>
<linearGradient id="paint8_linear_353_491" x1="143.294" y1="116.84" x2="37.5699" y2="174.436" gradientUnits="userSpaceOnUse">
<stop stop-color="#28852F"/>
<stop offset="1" stop-color="#19521D"/>
</linearGradient>
<linearGradient id="paint9_linear_353_491" x1="183.059" y1="14.7052" x2="170.389" y2="38.536" gradientUnits="userSpaceOnUse">
<stop stop-color="#28852F"/>
<stop offset="1" stop-color="#19521D"/>
</linearGradient>
<linearGradient id="paint10_linear_353_491" x1="65.9412" y1="105.568" x2="61.5347" y2="113.219" gradientUnits="userSpaceOnUse">
<stop stop-color="#28852F"/>
<stop offset="1" stop-color="#19521D"/>
</linearGradient>
<linearGradient id="paint11_linear_353_491" x1="76.6471" y1="110.741" x2="74.194" y2="115.621" gradientUnits="userSpaceOnUse">
<stop stop-color="#28852F"/>
<stop offset="1" stop-color="#19521D"/>
</linearGradient>
<linearGradient id="paint12_linear_353_491" x1="229.353" y1="30.3958" x2="223.267" y2="41.2462" gradientUnits="userSpaceOnUse">
<stop stop-color="#28852F"/>
<stop offset="1" stop-color="#19521D"/>
</linearGradient>
<linearGradient id="paint13_linear_353_491" x1="202.118" y1="40.8526" x2="194.847" y2="50.8464" gradientUnits="userSpaceOnUse">
<stop stop-color="#28852F"/>
<stop offset="1" stop-color="#19521D"/>
</linearGradient>
<linearGradient id="paint14_linear_353_491" x1="187" y1="21.6547" x2="184.025" y2="28.5156" gradientUnits="userSpaceOnUse">
<stop stop-color="#28852F"/>
<stop offset="1" stop-color="#19521D"/>
</linearGradient>
</defs>
</svg>
