<svg width="275" height="297" viewBox="0 0 275 297" fill="none" xmlns="http://www.w3.org/2000/svg">
<circle cx="137.5" cy="137.5" r="136.5" fill="url(#paint0_radial_353_448)" stroke="#52B8C3" stroke-width="2"/>
<path d="M257.156 182.066C261.289 158.888 261.471 149.194 274 144.309L273.465 128.778C273.465 128.778 236.601 91.3599 251.542 95.573C264.154 99.1297 273.465 121.012 273.465 121.012C270.328 99.3924 266.438 87.7403 254.75 67.9915C254.75 67.9915 242.417 73.1629 241.115 67.9915C239.874 63.0634 251.274 61.8326 251.274 61.8326C244.407 51.1837 239.836 46.2141 231.222 38C231.222 38 216.445 38.9508 208.23 43.0879C193.658 50.4254 168.963 67.6947 182.83 76.2928C194.208 83.3468 200.998 62.8335 214.379 62.9037C231.124 62.9916 241.115 74.1505 251.542 84.3262C261.969 94.5019 190.368 79.7521 184.167 82.9873C177.966 86.2225 149.199 106.2 168.66 133.062C177.897 145.811 193.337 139.054 208.23 140.56C223.122 142.067 211.504 220.098 222.667 214.736C238.51 207.126 253.024 205.245 257.156 182.066Z" fill="url(#paint1_linear_353_448)" stroke="#2B7C55"/>
<path d="M115.363 21.6565C127.891 17.0065 125.671 13.0184 109.018 4H106.639C85.9726 8.50034 57.2024 26.7394 50.8577 32.8925C44.513 39.0455 8.60761 68.6192 12.2602 95.4928C15.6003 120.068 55.6163 127.328 59.5818 137.226C63.5473 147.125 53.1615 152.744 55.6163 162.374C58.4648 173.547 71.5925 173.444 75.1795 184.31C68.5589 209.025 93.4651 253.081 101.352 250.924C109.238 248.766 92.0989 227.649 92.3633 222.031C92.6276 216.413 153.12 175.978 131.225 156.22C101.379 129.288 61.3568 113.117 59.5818 127.328C45.0736 103.121 38.6106 97.3881 29.7084 95.4928C30.7225 83.602 53.4308 86.4155 62.2255 92.5501C73.6348 100.508 78.3127 56.6647 98.4437 50.549C106.75 48.0256 114.124 56.3279 120.651 50.549C130.562 41.7731 111.287 27.8171 98.4437 24.8668C86.5303 22.13 71.7408 42.2972 69.099 35.8352C66.4573 29.3732 103.722 4.56482 102.409 14.9684C101.097 25.3721 106.747 27.0063 115.363 21.6565Z" fill="url(#paint2_linear_353_448)" stroke="#2B7C55"/>
<path d="M134.082 29.4265C128.234 19.9754 127.765 13.9569 128.07 1C151.795 1.02325 165.178 1.27587 180 7.64185C162.39 14.3576 138.852 37.1368 134.082 29.4265Z" fill="url(#paint3_linear_353_448)" stroke="#2B7C55"/>
<path d="M64.8507 106.056C67.0464 99.5801 44.2069 100.482 49.9206 102.441C53.1923 103.563 60.2039 108.833 61.5043 110.574C62.8175 112.331 64.1148 108.226 64.8507 106.056Z" fill="url(#paint4_linear_353_448)" stroke="#2B7C55"/>
<path d="M65.0173 112.2C65.2695 110.363 65.9651 107.171 67.3949 108.199C68.9714 109.333 73.092 110.65 75.3201 111.057C79.3082 111.786 64.4234 116.528 65.0173 112.2Z" fill="url(#paint5_linear_353_448)" stroke="#2B7C55"/>
<path d="M215.792 33.9561C218.978 39.9417 222.431 38.474 228 34.7633L213.622 24C203.318 30.6336 200.219 33.8752 215.792 33.9561Z" fill="url(#paint6_linear_353_448)" stroke="#2B7C55"/>
<path d="M197.725 38.2862C202.345 43.3878 203.362 46.035 192.14 49C191.966 48.7371 191.796 48.4774 191.631 48.2209C189.447 46.4971 181.428 48.2458 182.032 47.0264C182.987 45.0984 186.807 36.4808 187.352 39.132C187.861 41.608 189.298 44.596 191.631 48.2209C191.892 48.4272 192.07 48.6832 192.14 49C193.375 45.4447 193.281 43.5395 192.14 40.2598C186.051 31.9717 188.383 32.548 197.725 38.2862Z" fill="url(#paint7_linear_353_448)"/>
<path d="M192.14 49C203.362 46.035 202.345 43.3878 197.725 38.2862C188.383 32.548 186.051 31.9717 192.14 40.2598C193.281 43.5395 193.375 45.4447 192.14 49ZM192.14 49C189.506 45.0214 187.897 41.7831 187.352 39.132C186.807 36.4808 182.987 45.0984 182.032 47.0264C181.356 48.3917 191.49 46.0361 192.14 49Z" stroke="#2B7C55"/>
<path d="M172.621 25.8447C175.288 24.6809 180.715 22.9016 184.936 23.1969C191.212 23.6361 167.618 13.6739 169.064 20.2549C169.629 22.8291 170.342 26.8395 172.621 25.8447Z" fill="url(#paint8_linear_353_448)" stroke="#2B7C55"/>
<path opacity="0.75" d="M210.773 22.0811C228.376 33.5876 236.803 41.9271 249.879 59.1738C250.028 59.3353 250.054 59.534 250.051 59.6621C250.048 59.8087 250.007 59.9553 249.961 60.084C249.867 60.3464 249.697 60.6667 249.476 61.0254C249.029 61.7502 248.315 62.7227 247.384 63.8711C245.518 66.1723 242.744 69.2235 239.385 72.4893C232.675 79.0138 223.586 86.4435 214.704 90.4561C202.246 96.0846 194.934 98.8423 181.614 101.986C173.665 103.862 163.528 105.74 155.384 107.147C151.311 107.851 147.734 108.438 145.175 108.849C143.896 109.054 142.871 109.215 142.165 109.325C141.813 109.38 141.54 109.423 141.356 109.451C141.264 109.465 141.193 109.476 141.146 109.483C141.122 109.487 141.104 109.489 141.092 109.491C141.086 109.492 141.081 109.493 141.079 109.493C141.077 109.493 141.076 109.494 141.076 109.494H141.075L141.056 109.497L141.037 109.499H141.029C141.023 109.499 141.015 109.5 141.005 109.501C140.985 109.503 140.954 109.505 140.913 109.508C140.833 109.514 140.714 109.521 140.559 109.531C140.249 109.551 139.795 109.58 139.217 109.61C138.061 109.671 136.406 109.743 134.416 109.786C130.438 109.872 125.106 109.845 119.707 109.387C114.317 108.929 108.824 108.04 104.539 106.388C100.28 104.745 97.0469 102.279 96.5053 98.5723C95.7384 93.3237 98.1861 87.0723 100.75 82.209C102.041 79.7618 103.378 77.6359 104.391 76.1221C104.898 75.3651 105.324 74.76 105.624 74.3438C105.775 74.1357 105.894 73.9747 105.975 73.8652C106.016 73.8106 106.047 73.7686 106.069 73.7402C106.079 73.7262 106.088 73.7154 106.093 73.708C106.096 73.7045 106.098 73.7012 106.099 73.6992L106.103 73.6953V73.6943C106.103 73.6939 106.104 73.6932 106.105 73.6924C106.106 73.6906 106.108 73.6879 106.111 73.6846C106.116 73.6779 106.123 73.668 106.133 73.6553C106.153 73.6296 106.183 73.5916 106.222 73.542C106.3 73.4426 106.416 73.2963 106.568 73.1074C106.871 72.7297 107.318 72.1814 107.894 71.498C109.047 70.1313 110.718 68.2227 112.794 66.0508C116.943 61.7101 122.723 56.3048 129.226 52.0811C148.565 39.5203 161.112 34.4765 183.37 28.5166C188.186 27.2268 194.943 25.601 200.492 24.2979C203.266 23.6461 205.74 23.0743 207.521 22.666C208.411 22.4619 209.128 22.2989 209.622 22.1865C209.87 22.1303 210.062 22.086 210.192 22.0566C210.256 22.042 210.306 22.0309 210.339 22.0234C210.355 22.0198 210.368 22.0175 210.376 22.0156C210.38 22.0147 210.384 22.0132 210.386 22.0127H210.389L210.596 21.9658L210.773 22.0811ZM163.229 74.1035C161.221 67.9716 148.491 66.6368 134.796 71.1221C121.102 75.6074 111.628 84.2138 113.636 90.3457C115.645 96.4776 128.374 97.8125 142.069 93.3271C155.763 88.8419 165.237 80.2354 163.229 74.1035Z" fill="url(#paint9_radial_353_448)"/>
<defs>
<radialGradient id="paint0_radial_353_448" cx="0" cy="0" r="1" gradientUnits="userSpaceOnUse" gradientTransform="translate(144.709 137.767) rotate(-92.8899) scale(137.942)">
<stop offset="0.1" stop-color="#72BCD0"/>
<stop offset="0.596154" stop-color="#A6DAE8"/>
<stop offset="0.7" stop-color="#B6E4F0"/>
<stop offset="0.9999" stop-color="#A6DAE8"/>
</radialGradient>
<linearGradient id="paint1_linear_353_448" x1="280.588" y1="118.861" x2="196.434" y2="176.646" gradientUnits="userSpaceOnUse">
<stop stop-color="#28852F"/>
<stop offset="1" stop-color="#19521D"/>
</linearGradient>
<linearGradient id="paint2_linear_353_448" x1="143.294" y1="116.84" x2="37.5699" y2="174.436" gradientUnits="userSpaceOnUse">
<stop stop-color="#28852F"/>
<stop offset="1" stop-color="#19521D"/>
</linearGradient>
<linearGradient id="paint3_linear_353_448" x1="183.059" y1="14.7052" x2="170.389" y2="38.536" gradientUnits="userSpaceOnUse">
<stop stop-color="#28852F"/>
<stop offset="1" stop-color="#19521D"/>
</linearGradient>
<linearGradient id="paint4_linear_353_448" x1="65.9412" y1="105.568" x2="61.5347" y2="113.219" gradientUnits="userSpaceOnUse">
<stop stop-color="#28852F"/>
<stop offset="1" stop-color="#19521D"/>
</linearGradient>
<linearGradient id="paint5_linear_353_448" x1="76.6471" y1="110.741" x2="74.194" y2="115.621" gradientUnits="userSpaceOnUse">
<stop stop-color="#28852F"/>
<stop offset="1" stop-color="#19521D"/>
</linearGradient>
<linearGradient id="paint6_linear_353_448" x1="229.353" y1="30.3958" x2="223.267" y2="41.2462" gradientUnits="userSpaceOnUse">
<stop stop-color="#28852F"/>
<stop offset="1" stop-color="#19521D"/>
</linearGradient>
<linearGradient id="paint7_linear_353_448" x1="202.118" y1="40.8526" x2="194.847" y2="50.8464" gradientUnits="userSpaceOnUse">
<stop stop-color="#28852F"/>
<stop offset="1" stop-color="#19521D"/>
</linearGradient>
<linearGradient id="paint8_linear_353_448" x1="187" y1="21.6547" x2="184.025" y2="28.5156" gradientUnits="userSpaceOnUse">
<stop stop-color="#28852F"/>
<stop offset="1" stop-color="#19521D"/>
</linearGradient>
<radialGradient id="paint9_radial_353_448" cx="0" cy="0" r="1" gradientUnits="userSpaceOnUse" gradientTransform="translate(173.207 65.8954) rotate(90) scale(43.9296 76.8445)">
<stop offset="0.00480769" stop-color="#F7B283"/>
<stop offset="0.538462" stop-color="#EA701F"/>
</radialGradient>
</defs>
</svg>
