<svg width="100" height="100" viewBox="0 0 100 100" fill="none" xmlns="http://www.w3.org/2000/svg">
<circle cx="50" cy="50" r="50" fill="url(#paint0_radial_302_609)"/>
<path d="M16.724 25.2507C20.1419 20.4912 27.5897 14.9107 27.5897 14.9107L34 11C34 11 23.6886 17.9412 19.4787 24.4553C16.5955 28.9167 15.6104 31.8697 14.115 36.9827C11.9099 44.5223 11.9565 57 11.9565 57C11.9565 57 10.6348 43.9282 11.0987 40.2305C11.9037 33.8135 12.968 30.4811 16.724 25.2507Z" fill="#F6FBFF" stroke="#D7E9F4"/>
<path d="M12.0131 62.5498C11.8835 61.1555 12.0131 58.9641 12.0131 58.9641C12.0131 58.9641 12.779 62.8269 13.7395 65.1394C14.2956 66.4781 14.7161 67.1811 15.3996 68.4594C16.7876 71.0558 19.3172 74.9003 19.3172 74.9003C19.3172 74.9003 17.0111 72.9857 15.7979 71.5139C14.5076 69.9485 13.7639 69.0144 13.0091 67.1314C12.3277 65.4319 12.1826 64.3729 12.0131 62.5498Z" fill="#F6FBFF" stroke="#D7E9F4"/>
<path d="M45.4862 45.3897L64.0207 79L83 67.9949L64.0207 34.8308M45.4862 45.3897L47.7103 44.1227M45.4862 45.3897L43.4103 46.7282L40 40.4821L63.131 27.9897L66.0966 33.3436L64.0207 34.8308M64.0207 34.8308L62.8345 35.4256M58.5345 26.8L56.7552 24.4205L40 33.3436L41.1862 36.3179M52.6034 22.9333L50.9724 21L40 26.8L41.1862 29.9231M45.4862 40.4821L47.7103 44.1227M47.7103 44.1227L50.9724 42.2643M50.9724 42.2643L49.0448 38.8462M50.9724 42.2643L54.8276 40.1846M54.8276 40.1846L52.6034 36.3179M54.8276 40.1846L58.5345 37.9538M58.5345 37.9538L56.4586 34.3846M58.5345 37.9538L62.8345 35.4256M62.8345 35.4256L60.9069 32.1538" stroke="#3C6969" stroke-width="3"/>
<path d="M59.549 70L78 59.5912M68.4906 54.8206C68.4906 54.8206 65.6529 51.4955 61.9618 51.0618M68.4906 54.8206V57.7119M68.4906 54.8206C68.4906 54.8206 71.5208 52.3001 72.3228 53.664C73.0365 54.8778 70.6196 56.8445 70.6196 56.8445C70.6196 56.8445 73.0421 58.9882 72.3228 60.3141C71.4528 61.9175 68.4906 57.7119 68.4906 57.7119M61.9618 51.0618C58.2707 50.6281 54.821 52.5027 55.0072 55.8325C55.1769 58.8663 58.6965 60.3141 61.2522 60.3141M61.9618 51.0618C61.9618 51.0618 61.5293 56.7009 61.2522 60.3141M61.2522 60.3141C63.8078 60.3141 68.4906 57.7119 68.4906 57.7119" stroke="#3C6969" stroke-width="2"/>
<circle cx="34" cy="35" r="2.25" fill="#3C6969" stroke="#3C6969" stroke-width="1.5"/>
<circle cx="28.5" cy="47.5" r="1.75" fill="#3C6969" stroke="#3C6969" stroke-width="1.5"/>
<path d="M31 55.75C32.3765 55.75 33.25 56.6557 33.25 57.5C33.25 58.3443 32.3765 59.25 31 59.25C29.6235 59.25 28.75 58.3443 28.75 57.5C28.75 56.6557 29.6235 55.75 31 55.75Z" fill="#3C6969" stroke="#3C6969" stroke-width="1.5"/>
<circle cx="29.5" cy="70.5" r="1.75" fill="#3C6969" stroke="#3C6969" stroke-width="1.5"/>
<path d="M19.5 59.75C20.3443 59.75 21.25 60.6235 21.25 62C21.25 63.3765 20.3443 64.25 19.5 64.25C18.6557 64.25 17.75 63.3765 17.75 62C17.75 60.6235 18.6557 59.75 19.5 59.75Z" fill="#3C6969" stroke="#3C6969" stroke-width="1.5"/>
<defs>
<radialGradient id="paint0_radial_302_609" cx="0" cy="0" r="1" gradientUnits="userSpaceOnUse" gradientTransform="translate(50.0664 47.2776) rotate(31.4757) scale(53.3367)">
<stop offset="0.285336" stop-color="#F8FCFF"/>
<stop offset="0.658654" stop-color="#EAF3F9"/>
<stop offset="0.826923" stop-color="#D6E8F4"/>
<stop offset="0.9375" stop-color="#AED7F2"/>
<stop offset="1" stop-color="#7BD2F7"/>
</radialGradient>
</defs>
</svg>
