<svg width="100" height="100" viewBox="0 0 100 100" fill="none" xmlns="http://www.w3.org/2000/svg">
<circle cx="50" cy="50" r="50" fill="url(#paint0_radial_302_608)"/>
<path d="M16.724 25.2507C20.1419 20.4912 27.5897 14.9107 27.5897 14.9107L34 11C34 11 23.6886 17.9412 19.4787 24.4553C16.5955 28.9167 15.6104 31.8697 14.115 36.9827C11.9099 44.5223 11.9565 57 11.9565 57C11.9565 57 10.6348 43.9282 11.0987 40.2305C11.9037 33.8135 12.968 30.4811 16.724 25.2507Z" fill="#F6FBFF" stroke="#D7E9F4"/>
<path d="M12.013 62.5498C11.8833 61.1555 12.013 58.9641 12.013 58.9641C12.013 58.9641 12.7789 62.8269 13.7394 65.1394C14.2954 66.4781 14.716 67.1811 15.3994 68.4594C16.7875 71.0558 19.317 74.9003 19.317 74.9003C19.317 74.9003 17.0109 72.9857 15.7978 71.5139C14.5075 69.9485 13.7638 69.0144 13.009 67.1314C12.3276 65.4319 12.1825 64.3729 12.013 62.5498Z" fill="#F6FBFF" stroke="#D7E9F4"/>
<path opacity="0.8" d="M49.5 19.5C66.0685 19.5 79.5 32.9315 79.5 49.5C79.5 66.0685 66.0685 79.5 49.5 79.5C32.9315 79.5 19.5 66.0685 19.5 49.5C19.5 32.9315 32.9315 19.5 49.5 19.5Z" fill="#F8FCFF" stroke="#3C6969"/>
<path d="M44.8173 25.6807C45.6671 23.563 43.2767 20 43.2767 20C35.1325 22.2632 31.6297 25.5256 27 30.9926C27 30.9926 28.8599 34.9529 30.952 34.9765C32.4261 34.9931 32.8284 33.1311 34.3011 33.0583C35.9145 32.9786 36.4568 35.2542 38.0521 34.9765C40.5379 34.5437 38.5898 30.3396 40.3295 28.3367C41.7048 26.7532 44.013 27.6851 44.8173 25.6807Z" fill="#3C6969" stroke="black"/>
<path d="M26.3175 35.0606C24.5915 34.6731 21.9531 36.2712 21.9531 36.2712C18.8732 43.1478 18.473 47.2753 19.5205 55C19.5205 55 20.933 49.1047 23.9564 47.5939C26.4785 46.3337 28.8138 49.1203 31.1828 47.5939C32.7262 46.5995 32.7962 45.2256 33.9731 43.8197C35.7437 41.7046 39.2869 41.571 38.9814 38.8348C38.5927 35.3522 33.0327 40.5567 29.9664 38.8348C28.1765 37.8297 28.3223 35.5106 26.3175 35.0606Z" fill="#3C6969" stroke="black"/>
<path d="M31.2564 68.6579C29.1933 65.706 24 66.0088 24 66.0088C24 66.0088 26.3832 69.5476 28.2685 71.4585C30.2962 73.5138 34.0309 76 34.0309 76C34.0309 76 36.4001 74.1184 35.941 72.1398C35.3356 69.5306 33.0154 71.1748 31.2564 68.6579Z" fill="#3C6969" stroke="black"/>
<path d="M62.7789 69.0399C63.6925 72.0337 60.7075 77 60.7075 77C63.9843 76.1391 66.2816 74.6001 70.3501 71.4417C70.3501 71.4417 70.8938 67.4774 70.9929 64.7167C71.1079 61.5125 71.9929 58.9525 70.6358 55.3156C69.8124 53.1089 72.1444 53.1263 71.9929 50.7866C71.7926 47.6921 71.3967 43.5052 68.2073 43.0323C66.594 42.7931 65.8194 43.9514 64.2074 44.1989C62.3344 44.4865 61.095 43.8953 59.3504 44.6106C57.7899 45.2505 58.4483 46.9182 56.9219 47.63C54.7387 48.648 52.6363 46.6693 50.8507 48.1103C49.8255 48.9377 49.4936 49.5002 49.4936 50.7866C49.4936 53.0912 48.1012 54.3796 49.9936 55.7959C51.4679 56.8994 52.8034 56.0667 54.2791 57.1684C55.5474 58.1152 54.6463 58.7739 55.8029 59.8446C57.6509 61.5553 61.3134 58.1638 62.7789 60.1877C64.0412 61.9311 62.4681 63.6832 62.9931 65.7461C63.3613 67.1926 62.3428 67.6109 62.7789 69.0399Z" fill="#3C6969" stroke="black"/>
<path d="M72.9767 41.8811C74.8189 41.0376 73.3591 37.5815 75.306 37.0587C75.947 36.8865 77 37.0587 77 37.0587C73.6369 30.5356 71.2762 27.6911 66.2007 24.0011C66.2007 24.0011 60.3126 23.8642 58.9306 26.6719C58.0059 28.5505 60.1586 30.4123 58.9306 32.0879C57.7543 33.6927 55.1525 31.8097 54.2014 33.5717C53.2645 35.3076 56.4288 36.9142 55.3308 38.5425C54.3823 39.949 51.3312 42.7472 54.2014 44.7745C55.9751 46.0273 56.8059 41.6407 58.9306 41.8811C60.734 42.0851 61.2821 44.1098 63.0839 44.3294C66.4954 44.7451 65.9568 40.7332 68.5895 40.3972C70.5816 40.1431 71.137 42.7234 72.9767 41.8811Z" fill="#3C6969" stroke="black"/>
<path d="M47.8731 41.5445C47.4487 39.3182 44.2636 38.5577 45.1574 36.4943C46.1552 34.1908 49.4598 34.8392 51.2676 36.4943C53.8975 38.9019 48.659 48.817 47.8731 45.224C47.5669 43.8244 48.1415 42.9528 47.8731 41.5445Z" fill="#3C6969" stroke="black"/>
<defs>
<radialGradient id="paint0_radial_302_608" cx="0" cy="0" r="1" gradientUnits="userSpaceOnUse" gradientTransform="translate(50.0664 47.2776) rotate(31.4757) scale(53.3367)">
<stop offset="0.285336" stop-color="#F8FCFF"/>
<stop offset="0.658654" stop-color="#EAF3F9"/>
<stop offset="0.826923" stop-color="#D6E8F4"/>
<stop offset="0.9375" stop-color="#AED7F2"/>
<stop offset="1" stop-color="#7BD2F7"/>
</radialGradient>
</defs>
</svg>
