<svg width="100" height="100" viewBox="0 0 100 100" fill="none" xmlns="http://www.w3.org/2000/svg">
<circle cx="50" cy="50" r="50" fill="url(#paint0_radial_302_607)"/>
<path d="M16.724 25.2507C20.1419 20.4912 27.5897 14.9107 27.5897 14.9107L34 11C34 11 23.6886 17.9412 19.4787 24.4553C16.5955 28.9167 15.6104 31.8697 14.115 36.9827C11.9099 44.5223 11.9565 57 11.9565 57C11.9565 57 10.6348 43.9282 11.0987 40.2305C11.9037 33.8135 12.968 30.4811 16.724 25.2507Z" fill="#F6FBFF" stroke="#D7E9F4"/>
<path d="M11.8929 61.9243C11.7646 60.544 11.8929 58.3745 11.8929 58.3745C11.8929 58.3745 12.6511 62.1986 13.6021 64.488C14.1525 65.8134 14.5689 66.5093 15.2455 67.7749C16.6197 70.3452 19.1239 74.1514 19.1239 74.1514C19.1239 74.1514 16.8409 72.2559 15.6399 70.7988C14.3625 69.2491 13.6262 68.3243 12.8789 66.4602C12.2044 64.7776 12.0607 63.7293 11.8929 61.9243Z" fill="#F6FBFF" stroke="#D7E9F4"/>
<path d="M65.0753 65.4029C68.8056 67.5817 70.0726 69.3389 69.9968 74H28C28.177 69.131 29.2206 67.3602 32.2653 65.4029C37.627 63.3465 43.0926 61.7657 43.4207 61.435C43.7488 61.1044 44.0769 56.4751 43.7488 55.8138C43.4207 55.1525 40.4678 50.854 40.4678 50.854C40.4678 50.854 38.6263 49.4936 38.4992 48.2087C38.3906 47.1109 39.4835 45.8941 39.4835 45.5634C39.4835 45.2328 38.6677 43.5943 38.4992 42.2569C38.2047 39.9192 39.4835 36.305 39.4835 36.305C41.1537 33.3952 42.3748 32.1261 45.7174 31.3452C50.9916 30.5306 52.7865 31.1018 54.248 33.6598C57.2961 34.1445 58.2238 35.1553 59.1695 37.6277C60.1152 40.1 58.1852 45.5634 58.5133 45.8941C58.8415 46.2248 59.9679 47.3933 59.8257 48.5394C59.6684 49.8078 57.529 50.854 57.529 50.854C57.529 50.854 54.5761 55.1525 54.248 55.8138C53.92 56.4751 54.5761 61.435 54.9042 61.7657C55.2324 62.0963 61.448 63.8165 65.0753 65.4029Z" fill="#3C6969" stroke="#3C6969"/>
<path d="M68.404 35.0696C67.1888 34.8894 65.8124 35.01 65.4477 36.0248C65.0804 37.0465 66.5563 37.6167 67.2954 38.2535C68.0344 38.8903 65.4477 42.3926 65.0781 43.6662C64.7086 44.9397 65.6832 46.4339 67.2954 46.8501C68.7843 47.2345 70.7848 46.9039 70.9907 45.5765C71.167 44.4403 68.7735 43.9846 68.7735 43.3478C68.7735 42.711 70.9907 39.2087 70.9907 37.9351C70.9907 36.6616 70.0255 35.3101 68.404 35.0696Z" fill="#3C6969" stroke="#3C6969"/>
<circle cx="68" cy="29" r="3" fill="#3C6969"/>
<defs>
<radialGradient id="paint0_radial_302_607" cx="0" cy="0" r="1" gradientUnits="userSpaceOnUse" gradientTransform="translate(50.0664 47.2776) rotate(31.4757) scale(53.3367)">
<stop offset="0.285336" stop-color="#F8FCFF"/>
<stop offset="0.658654" stop-color="#EAF3F9"/>
<stop offset="0.826923" stop-color="#D6E8F4"/>
<stop offset="0.9375" stop-color="#AED7F2"/>
<stop offset="1" stop-color="#7BD2F7"/>
</radialGradient>
</defs>
</svg>
