<svg width="150" height="150" viewBox="0 0 150 150" fill="none" xmlns="http://www.w3.org/2000/svg">
<circle cx="75" cy="75" r="75" fill="url(#paint0_radial_352_424)"/>
<path d="M24.7105 38.3761C29.9116 31.2367 41.2452 22.866 41.2452 22.866L51 17C51 17 35.3088 27.4118 28.9024 37.183C24.5149 43.875 23.0159 48.3045 20.7402 55.9741C17.3846 67.2835 17.4555 86 17.4555 86C17.4555 86 15.4443 66.3923 16.1502 60.8458C17.3752 51.2203 18.9948 46.2217 24.7105 38.3761Z" fill="#F6FBFF" stroke="#D7E9F4"/>
<path d="M18.0196 93.8246C17.8251 91.7332 18.0196 88.4461 18.0196 88.4461C18.0196 88.4461 19.1684 94.2403 20.6092 97.7091C21.4433 99.7171 22.0741 100.772 23.0993 102.689C25.1813 106.584 28.9757 112.351 28.9757 112.351C28.9757 112.351 25.5165 109.479 23.6968 107.271C21.7614 104.923 20.6458 103.522 19.5136 100.697C18.4916 98.1478 18.2738 96.5594 18.0196 93.8246Z" fill="#F6FBFF" stroke="#D7E9F4"/>
<path d="M35.5001 64.7474C33.4999 66.2473 33.5001 84.2475 35.5001 86.2474C37.5001 88.2473 47.0001 86.2474 47.0001 86.2474C47.0001 86.2474 59.0001 101.747 69.0001 106.747C79.0001 111.747 79.0001 39.2474 69.0001 44.2474C59.0001 49.2474 47.0001 64.7474 47.0001 64.7474C47.0001 64.7474 37.5003 63.2475 35.5001 64.7474Z" fill="#3C6969" stroke="#3C6969"/>
<path d="M84.6701 75.2531C84.6754 69.7302 74.6568 65.2436 80.1797 65.2488C85.7025 65.2541 90.1754 69.7355 90.1701 75.2583C90.1649 80.7812 85.6835 85.254 80.1606 85.2488C74.6378 85.2436 84.6649 80.7759 84.6701 75.2531Z" fill="#3C6969"/>
<path d="M96.1978 75.0472C97.2739 63.869 72.1031 55.0272 82.1802 55.2538C92.1802 58.2538 101.728 64.1532 101.717 75.0472C101.707 85.9412 92.1802 91.7538 81.9734 94.7538C71.6567 95.1514 97.0113 86.523 96.1978 75.0472Z" fill="#3C6969"/>
<path d="M108.859 74.8566C107.859 55.0596 79.8594 49.0596 88.3588 47.3876C96.8582 45.7157 115.79 59.7003 115.776 74.8566C115.761 90.0129 100.754 102.987 88.3067 102.273C75.8594 101.56 108.859 93.5596 108.859 74.8566Z" fill="#3C6969"/>
<defs>
<radialGradient id="paint0_radial_352_424" cx="0" cy="0" r="1" gradientUnits="userSpaceOnUse" gradientTransform="translate(75.0996 70.9163) rotate(31.4757) scale(80.0051)">
<stop offset="0.285336" stop-color="#F8FCFF"/>
<stop offset="0.658654" stop-color="#EAF3F9"/>
<stop offset="0.826923" stop-color="#D6E8F4"/>
<stop offset="0.9375" stop-color="#AED7F2"/>
<stop offset="1" stop-color="#7BD2F7"/>
</radialGradient>
</defs>
</svg>
