<svg width="150" height="150" viewBox="0 0 150 150" fill="none" xmlns="http://www.w3.org/2000/svg">
<circle cx="63.6189" cy="57.3869" r="3.79356" fill="white" stroke="#333333" stroke-width="0.8"/>
<circle cx="83.7481" cy="56.8283" r="3.79356" fill="white" stroke="#333333" stroke-width="0.8"/>
<path d="M36.1707 24.7285C36.6241 24.6896 37.0742 24.6732 37.52 24.6785L36.364 39.2366L49.5152 32.0947C50.3141 33.6412 50.8306 35.3663 50.9884 37.2083C51.6341 44.7462 46.0475 51.3799 38.5096 52.0259C30.9716 52.6718 24.337 47.0851 23.691 39.5472C23.0451 32.0091 28.6326 25.3743 36.1707 24.7285Z" fill="#EE6060"/>
<path d="M114.553 24.1694C114.099 24.1305 113.649 24.1141 113.203 24.1194L114.359 38.6775L101.208 31.5356C100.409 33.0821 99.8928 34.8072 99.735 36.6492C99.0893 44.1871 104.676 50.8208 112.214 51.4668C119.752 52.1127 126.386 46.526 127.032 38.9881C127.678 31.45 122.091 24.8153 114.553 24.1694Z" fill="#EE6060"/>
<path fill-rule="evenodd" clip-rule="evenodd" d="M47.6806 48.7192C48.4354 50.0148 49.0082 51.6751 49.3642 53.7739C49.8313 56.5275 49.8667 59.7025 49.4931 62.7827C43.2863 64.0139 38.4495 69.0495 37.5146 75.3579C32.2948 72.667 27.2743 64.3559 26.1211 57.5581C25.5008 53.9011 26.099 51.2702 27.4843 49.3735C30.2482 52.1998 34.208 53.8135 38.4541 53.4497C42.1783 53.1305 45.4252 51.3487 47.6806 48.7192Z" fill="#EE6060"/>
<path fill-rule="evenodd" clip-rule="evenodd" d="M103.041 48.1611C102.286 49.4565 101.713 51.1157 101.357 53.2139C100.89 55.9677 100.855 59.1432 101.228 62.2236C107.435 63.4543 112.273 68.4896 113.209 74.7979C118.428 72.1059 123.447 63.7959 124.6 56.999C125.221 53.3426 124.622 50.712 123.237 48.8154C120.473 51.6414 116.514 53.2542 112.268 52.8906C108.544 52.5715 105.296 50.7905 103.041 48.1611Z" fill="#EE6060"/>
<path d="M37.5098 89.5383L23.0128 95.9814L14.1009 111.904" stroke="#EE6060" stroke-width="3" stroke-linejoin="bevel"/>
<path d="M44.4561 102.398L33.0378 107.473L26.1982 120.418" stroke="#EE6060" stroke-width="3" stroke-linejoin="bevel"/>
<path d="M56.3329 111.049L48.3374 115.273L43.9042 127" stroke="#EE6060" stroke-width="3" stroke-linejoin="bevel"/>
<path d="M112.49 89.5383L126.987 95.9814L135.899 111.904" stroke="#EE6060" stroke-width="3" stroke-linejoin="bevel"/>
<path d="M105.543 102.398L116.962 107.473L123.801 120.418" stroke="#EE6060" stroke-width="3" stroke-linejoin="bevel"/>
<path d="M93.6675 111.049L101.663 115.273L106.096 127" stroke="#EE6060" stroke-width="3" stroke-linejoin="bevel"/>
<ellipse cx="75.3608" cy="87.5807" rx="39.9786" ry="31.0323" fill="url(#paint0_linear_138_563)"/>
<defs>
<linearGradient id="paint0_linear_138_563" x1="75.3608" y1="56.5483" x2="75.3608" y2="118.613" gradientUnits="userSpaceOnUse">
<stop stop-color="#EE6060"/>
<stop offset="1" stop-color="#BC5757"/>
</linearGradient>
</defs>
</svg>
