<svg width="150" height="150" viewBox="0 0 150 150" fill="none" xmlns="http://www.w3.org/2000/svg">
<path fill-rule="evenodd" clip-rule="evenodd" d="M31.3217 120.737C31.7449 121.138 32.344 121.684 33.0502 122.263C34.434 123.399 36.3359 124.755 38.1674 125.322C40.1175 125.926 42.6381 125.837 44.5678 125.634C44.8819 125.601 45.1845 125.562 45.4711 125.524C44.4959 127.115 43.6072 128.508 42.8969 129.595C42.3894 130.371 41.9703 130.996 41.6752 131.432C41.5277 131.65 41.4106 131.823 41.3285 131.942C41.2877 132.002 41.2549 132.048 41.2318 132.082C41.2203 132.099 41.2104 132.113 41.2035 132.123C41.2004 132.127 41.1978 132.132 41.1957 132.135C41.1947 132.136 41.1936 132.137 41.1928 132.138L41.1918 132.14C41.1834 132.135 40.9865 131.999 36.1781 128.639L41.1908 132.141C38.8331 135.533 34.1613 136.354 30.7563 133.975C27.3512 131.596 26.5029 126.917 28.8607 123.526V123.525C28.8635 123.521 28.8685 123.514 28.8754 123.504C28.8899 123.483 28.9137 123.449 28.9457 123.402C29.0099 123.309 29.1086 123.165 29.2367 122.975C29.493 122.597 29.868 122.036 30.3285 121.332C30.5214 121.037 30.7272 120.716 30.9467 120.375C31.0492 120.475 31.1749 120.598 31.3217 120.737ZM37.5082 108.976C37.8415 109.277 38.2282 109.616 38.6547 109.966C40.0384 111.101 41.9405 112.457 43.7719 113.024C45.7221 113.628 48.2434 113.54 50.1732 113.337C50.9411 113.256 51.6396 113.153 52.2065 113.059C50.5535 116.739 48.5456 120.363 46.8158 123.293C46.7821 123.299 46.7478 123.307 46.7123 123.313C46.1226 123.419 45.3014 123.549 44.3764 123.646C42.485 123.845 40.3128 123.889 38.7758 123.413C37.3339 122.966 35.6805 121.824 34.3285 120.715C33.6672 120.172 33.1034 119.659 32.7055 119.282C32.5069 119.094 32.3496 118.94 32.2436 118.835C32.1908 118.782 32.1509 118.741 32.1244 118.714L32.0863 118.676L31.934 118.822C32.5287 117.872 33.1733 116.817 33.8363 115.696C35.1404 113.491 36.4162 111.182 37.5082 108.976ZM41.7211 95.3982C41.7241 95.4 41.7287 95.4031 41.7338 95.4061C41.7445 95.4122 41.7602 95.4213 41.7797 95.4324C41.819 95.4548 41.8759 95.4867 41.9486 95.5271C42.0947 95.6082 42.3061 95.7235 42.5688 95.8611C43.0937 96.1361 43.8317 96.5043 44.6811 96.8768C46.3451 97.6065 48.5725 98.4127 50.5004 98.4803C52.51 98.5505 54.8485 97.8389 56.6293 97.1541C56.2448 99.9701 55.6477 102.938 54.7338 106.261C54.3253 107.746 53.7794 109.292 53.1488 110.852C53.1117 110.86 53.0646 110.871 53.0082 110.883C52.8476 110.916 52.6121 110.964 52.3178 111.016C51.728 111.122 50.906 111.252 49.9809 111.349C48.0895 111.548 45.9172 111.591 44.3803 111.115C42.9385 110.668 41.2859 109.527 39.934 108.418C39.3264 107.919 38.8015 107.445 38.4115 107.079C39.2238 105.298 39.8761 103.632 40.2699 102.2C40.9546 99.7106 41.4148 97.5197 41.7201 95.3973L41.7211 95.3982ZM42.5688 80.0506C43.0937 80.3256 43.8317 80.6937 44.6811 81.0662C46.3451 81.7959 48.5725 82.6022 50.5004 82.6697C52.5536 82.7415 54.9512 81.9988 56.7455 81.3006C56.8997 81.2406 57.0498 81.1787 57.1967 81.1189C57.2994 86.0548 57.3529 90.3349 56.8979 94.8777C56.609 95.0011 56.2991 95.1307 55.9731 95.2576C54.2146 95.9418 52.1413 96.5494 50.5258 96.493C49.0099 96.4399 47.0856 95.7735 45.4594 95.0603C44.6639 94.7115 43.9706 94.3658 43.477 94.1072C43.2308 93.9783 43.0347 93.8715 42.9018 93.7977C42.8354 93.7608 42.7838 93.7307 42.7504 93.7117C42.7342 93.7025 42.722 93.6957 42.7143 93.6912C42.7107 93.6892 42.7081 93.6874 42.7065 93.6863L42.7035 93.6853L41.7221 95.3836C42.3948 90.6973 42.3059 86.3416 42.1693 79.8348C42.2839 79.8969 42.4172 79.9712 42.5688 80.0506ZM55.0785 66.2557C56.052 70.0245 57.0581 74.4436 57.1508 78.8885C57.1513 78.9122 57.1513 78.936 57.1518 78.9598C56.7939 79.1162 56.3965 79.2823 55.9731 79.4471C54.2146 80.1313 52.1413 80.7389 50.5258 80.6824C49.0099 80.6294 47.0856 79.9629 45.4594 79.2498C44.6639 78.9009 43.9706 78.5552 43.477 78.2967C43.2308 78.1678 43.0347 78.0609 42.9018 77.9871C42.8354 77.9502 42.7838 77.9202 42.7504 77.9012C42.7342 77.892 42.722 77.8851 42.7143 77.8807C42.7107 77.8786 42.7081 77.8768 42.7065 77.8758L42.7035 77.8748L42.144 78.8416C42.02 75.1553 40.9417 71.4731 39.6264 66.3748C40.017 66.5615 40.4621 66.7667 40.9438 66.9715C42.6033 67.6772 44.8234 68.4536 46.7455 68.5105C48.7912 68.571 51.1862 67.8355 52.9818 67.1453C53.8032 66.8296 54.5279 66.5105 55.0785 66.2557ZM37.8148 49.3533C38.1036 49.6473 38.4326 49.9728 38.7934 50.3094C40.0865 51.5154 41.8773 52.9719 43.6566 53.656C45.5503 54.384 48.0664 54.4809 50.0053 54.4236C50.9949 54.3944 51.8747 54.3234 52.5063 54.2596C52.5314 54.257 52.5561 54.2533 52.5805 54.2508C52.6958 56.562 53.2416 59.1846 54.0766 62.4344C54.2271 63.0201 54.3903 63.635 54.56 64.2752C54.4989 64.3045 54.4351 64.3377 54.3666 64.3699C53.8303 64.6221 53.0785 64.9578 52.2172 65.2889C50.4566 65.9656 48.3778 66.5692 46.7592 66.5213C45.2415 66.4762 43.3205 65.8342 41.7006 65.1453C40.9078 64.8082 40.2176 64.4737 39.726 64.2234C39.4805 64.0985 39.2852 63.9951 39.1527 63.9236C39.0866 63.8879 39.0366 63.859 39.0033 63.8406C38.9994 63.8384 38.996 63.8357 38.9926 63.8338C37.9861 59.6016 37.1191 54.5963 37.8148 49.3533ZM42.8627 34.7195C43.249 35.1327 43.7782 35.6767 44.3988 36.2557C45.6919 37.4617 47.4829 38.9173 49.2621 39.6014C51.1559 40.3294 53.6718 40.4272 55.6107 40.3699C56.0716 40.3563 56.5085 40.3323 56.9076 40.3055C54.9397 43.978 53.2704 47.8748 52.7455 50.9881C52.6761 51.4 52.6272 51.8185 52.5961 52.2449C52.5157 52.2538 52.4295 52.2659 52.3373 52.2752C51.741 52.3355 50.9112 52.402 49.9809 52.4295C48.0799 52.4857 45.9073 52.3702 44.4076 51.7937C43.0015 51.2531 41.4393 50.0198 40.1772 48.8426C39.5595 48.2664 39.0371 47.7257 38.6693 47.3299C38.4927 47.1398 38.3534 46.9828 38.2563 46.8728C39.2031 42.5868 41.0425 38.2953 42.8627 34.7195ZM49.5883 23.576C52.0072 20.2283 56.694 19.4929 60.0561 21.9324C63.417 24.3715 64.1825 29.0614 61.766 32.409C61.7646 32.411 61.7611 32.4137 61.7582 32.4178C61.7486 32.4313 61.732 32.4564 61.7074 32.491C61.6576 32.5613 61.578 32.6744 61.4731 32.826C61.2629 33.1295 60.9507 33.5875 60.5668 34.1717C59.8946 35.1947 59.0131 36.5872 58.0775 38.2059C58.0338 38.2105 57.9885 38.2168 57.9418 38.2215C57.3454 38.2817 56.5158 38.3483 55.5854 38.3758C53.6845 38.4319 51.5127 38.3163 50.0131 37.74C48.607 37.1995 47.0448 35.9661 45.7826 34.7889C45.1649 34.2127 44.6426 33.6721 44.2748 33.2762C44.0984 33.0862 43.9579 32.9301 43.8607 32.8201C44.1073 32.3653 44.3493 31.9261 44.5863 31.5057C45.8761 29.2179 47.1067 27.265 48.017 25.8797C48.4734 25.185 48.8537 24.6265 49.1254 24.2342C49.2611 24.0383 49.3703 23.8829 49.4486 23.7723C49.4876 23.7172 49.52 23.6731 49.5434 23.6404C49.5549 23.6242 49.5642 23.6099 49.5717 23.5994C49.5754 23.5943 49.5788 23.5895 49.5815 23.5857C49.5828 23.5838 49.5843 23.5814 49.5854 23.5799L49.5873 23.5779C49.5922 23.5806 49.6813 23.6453 51.4516 24.9295C51.075 25.2517 50.8364 25.73 50.8363 26.2644C50.8363 27.2347 51.6229 28.0213 52.5932 28.0213C53.3258 28.0211 53.9518 27.5718 54.2152 26.9344C54.6583 27.2559 55.1442 27.6079 55.6762 27.9939L54.2162 26.9344C54.3015 26.7278 54.35 26.5018 54.35 26.2644C54.3499 25.2944 53.5632 24.5078 52.5932 24.5076C52.1579 24.5076 51.7594 24.6663 51.4525 24.9285L49.5883 23.576Z" fill="url(#paint0_linear_138_390)"/>
<path fill-rule="evenodd" clip-rule="evenodd" d="M90.6195 122.843C91.0427 123.244 91.6421 123.789 92.3481 124.368C93.7318 125.503 95.6337 126.859 97.4652 127.427C99.4153 128.03 101.936 127.942 103.866 127.739C104.18 127.706 104.482 127.667 104.769 127.629C103.794 129.219 102.905 130.612 102.195 131.699C101.687 132.475 101.268 133.101 100.973 133.537C100.826 133.755 100.708 133.927 100.626 134.047C100.586 134.106 100.553 134.153 100.53 134.186C100.518 134.203 100.508 134.216 100.501 134.226C100.498 134.231 100.496 134.236 100.494 134.239C100.493 134.241 100.491 134.242 100.491 134.243L100.49 134.245C100.482 134.241 100.299 134.114 95.476 130.744L100.489 134.246C98.1308 137.637 93.4592 138.458 90.0541 136.079C86.649 133.7 85.8007 129.022 88.1586 125.631V125.63C88.1613 125.626 88.1663 125.618 88.1732 125.608C88.1877 125.587 88.2116 125.553 88.2436 125.507C88.3077 125.413 88.4057 125.269 88.5336 125.08C88.7899 124.701 89.1658 124.141 89.6264 123.436C89.8192 123.141 90.0251 122.821 90.2445 122.479C90.347 122.58 90.4727 122.703 90.6195 122.843ZM96.8061 111.082C97.1393 111.383 97.5261 111.721 97.9525 112.071C99.3363 113.206 101.238 114.562 103.07 115.13C105.02 115.734 107.541 115.644 109.471 115.441C110.239 115.36 110.937 115.258 111.504 115.164C109.851 118.843 107.843 122.467 106.114 125.397C106.08 125.403 106.046 125.411 106.01 125.418C105.42 125.524 104.599 125.654 103.674 125.752C101.783 125.951 99.6106 125.993 98.0736 125.517C96.6317 125.071 94.9784 123.929 93.6264 122.82C92.9649 122.277 92.4014 121.764 92.0033 121.387C91.8047 121.198 91.6474 121.045 91.5414 120.939C91.4888 120.887 91.4488 120.846 91.4223 120.819C91.4091 120.806 91.3982 120.795 91.392 120.789C91.3892 120.786 91.3874 120.783 91.3861 120.782L91.3842 120.78L91.2299 120.928C91.8249 119.977 92.4707 118.923 93.1342 117.801C94.438 115.596 95.7142 113.287 96.8061 111.082ZM101.031 97.5105C101.041 97.5167 101.058 97.5267 101.078 97.5379C101.117 97.5603 101.174 97.5923 101.246 97.6326C101.392 97.7137 101.603 97.8281 101.866 97.9656C102.391 98.2406 103.129 98.6087 103.978 98.9812C105.642 99.711 107.869 100.518 109.797 100.586C111.807 100.656 114.146 99.9435 115.927 99.2586C115.543 102.075 114.946 105.042 114.032 108.365C113.623 109.85 113.077 111.397 112.447 112.957C112.41 112.965 112.363 112.976 112.306 112.988C112.145 113.021 111.909 113.068 111.615 113.121C111.025 113.227 110.204 113.357 109.279 113.454C107.387 113.653 105.215 113.696 103.678 113.22C102.236 112.774 100.584 111.631 99.2318 110.522C98.6244 110.024 98.0994 109.55 97.7094 109.184C98.5218 107.403 99.1739 105.736 99.5678 104.304C100.202 102 100.644 99.9516 100.949 97.9764L101.018 97.5037C101.021 97.5054 101.026 97.5076 101.031 97.5105ZM101.866 82.1551C102.391 82.43 103.128 82.7982 103.978 83.1707C105.642 83.9004 107.869 84.7076 109.797 84.7752C111.85 84.847 114.248 84.1033 116.042 83.4051C116.197 83.345 116.347 83.2832 116.495 83.2234C116.597 88.1593 116.651 92.4394 116.196 96.9822C115.907 97.1056 115.597 97.2352 115.271 97.3621C113.512 98.0464 111.438 98.654 109.823 98.5975C108.307 98.5443 106.383 97.8779 104.757 97.1648C103.962 96.816 103.268 96.4703 102.775 96.2117C102.529 96.0828 102.333 95.976 102.2 95.9021C102.133 95.8653 102.082 95.8362 102.048 95.8172C102.032 95.808 102.02 95.8012 102.012 95.7967C102.008 95.7944 102.005 95.7918 102.003 95.7908H102.001L101.02 97.4891C101.693 92.8024 101.604 88.4466 101.467 81.9392C101.582 82.0013 101.714 82.0758 101.866 82.1551ZM114.376 68.3601C115.35 72.129 116.356 76.5481 116.449 80.993C116.449 81.0167 116.449 81.0405 116.45 81.0642C116.092 81.2207 115.695 81.3867 115.271 81.5516C113.512 82.2358 111.438 82.8435 109.823 82.7869C108.307 82.7337 106.383 82.0673 104.757 81.3543C103.962 81.0054 103.268 80.6597 102.775 80.4012C102.529 80.2722 102.333 80.1654 102.2 80.0916C102.133 80.0547 102.082 80.0256 102.048 80.0066C102.032 79.9974 102.02 79.9906 102.012 79.9861C102.008 79.9839 102.005 79.9812 102.003 79.9803H102.001L101.442 80.9471C101.318 77.2604 100.24 73.5781 98.9242 68.4793C99.3149 68.666 99.7599 68.8711 100.242 69.076C101.901 69.7817 104.121 70.5581 106.043 70.615C108.089 70.6755 110.484 69.9409 112.28 69.2508C113.101 68.935 113.826 68.615 114.376 68.3601ZM97.1127 51.4588C97.4014 51.7527 97.7306 52.0775 98.0912 52.4139C99.3843 53.6199 101.175 55.0764 102.954 55.7605C104.848 56.4885 107.364 56.5854 109.303 56.5281C110.293 56.4989 111.173 56.4279 111.804 56.3641C111.829 56.3615 111.854 56.3578 111.878 56.3553C111.994 58.6665 112.539 61.2891 113.374 64.5389C113.525 65.1249 113.688 65.7401 113.858 66.3807C113.797 66.4099 113.733 66.4432 113.664 66.4754C113.128 66.7276 112.376 67.0633 111.515 67.3943C109.754 68.071 107.676 68.6737 106.057 68.6258C104.539 68.5807 102.618 67.9387 100.998 67.2498C100.206 66.9127 99.5154 66.5782 99.0238 66.3279C98.7784 66.203 98.583 66.0996 98.4506 66.0281C98.3845 65.9924 98.3344 65.9635 98.3012 65.9451C98.2969 65.9428 98.2931 65.9403 98.2895 65.9383C97.2831 61.7064 96.4172 56.7013 97.1127 51.4588ZM102.161 36.824C102.547 37.2371 103.075 37.7813 103.696 38.3601C104.989 39.5662 106.781 41.0227 108.56 41.7068C110.454 42.4347 112.97 42.5317 114.909 42.4744C115.369 42.4608 115.806 42.4368 116.205 42.41C114.238 46.0825 112.568 49.9793 112.043 53.0926C111.974 53.5045 111.925 53.9229 111.894 54.3494C111.813 54.3583 111.727 54.3703 111.634 54.3797C111.038 54.4399 110.208 54.5065 109.278 54.534C107.377 54.5901 105.205 54.4746 103.705 53.8982C102.299 53.3577 100.737 52.1253 99.475 50.948C98.8574 50.3719 98.335 49.8312 97.9672 49.4353C97.7906 49.2452 97.6503 49.0883 97.5531 48.9783C98.4999 44.6919 100.34 40.4001 102.161 36.824ZM108.886 25.6805C111.305 22.3328 115.992 21.5974 119.354 24.0369C122.715 26.476 123.48 31.1659 121.064 34.5135C121.062 34.5155 121.059 34.5182 121.056 34.5223C121.046 34.5358 121.03 34.5609 121.005 34.5955C120.955 34.6658 120.876 34.7789 120.771 34.9305C120.561 35.234 120.249 35.6919 119.865 36.2762C119.192 37.2992 118.311 38.6917 117.375 40.3103C117.332 40.315 117.286 40.3212 117.24 40.326C116.643 40.3862 115.814 40.4528 114.883 40.4803C112.982 40.5364 110.81 40.4209 109.31 39.8445C107.904 39.3039 106.343 38.0705 105.08 36.8933C104.463 36.3171 103.939 35.7766 103.572 35.3807C103.395 35.1908 103.256 35.0345 103.159 34.9246C103.405 34.4698 103.647 34.0306 103.884 33.6101C105.174 31.3224 106.405 29.3695 107.315 27.9842C107.771 27.2895 108.152 26.731 108.423 26.3387C108.559 26.1427 108.668 25.9874 108.746 25.8767C108.786 25.8216 108.818 25.7766 108.841 25.7439C108.853 25.728 108.862 25.7143 108.87 25.7039C108.873 25.6988 108.877 25.694 108.879 25.6902C108.881 25.6883 108.882 25.6859 108.883 25.6844L108.885 25.6824C108.89 25.685 108.979 25.7498 110.749 27.034C110.373 27.3562 110.134 27.8345 110.134 28.3689C110.134 29.3392 110.921 30.1258 111.891 30.1258C112.624 30.1256 113.25 29.6763 113.513 29.0389C113.956 29.3603 114.442 29.7124 114.974 30.0984L113.514 29.0389C113.599 28.8323 113.647 28.6063 113.647 28.3689C113.647 27.3989 112.861 26.6123 111.891 26.6121C111.456 26.6121 111.057 26.7708 110.75 27.033L108.886 25.6805Z" fill="url(#paint1_linear_138_390)"/>
<path fill-rule="evenodd" clip-rule="evenodd" d="M60.7543 112.804C61.1775 113.205 61.7766 113.751 62.4828 114.33C63.8666 115.466 65.7685 116.822 67.6 117.389C69.5502 117.993 72.0716 117.903 74.0014 117.701C74.3152 117.667 74.6173 117.629 74.9037 117.591C73.9286 119.182 73.0398 120.574 72.3295 121.66C71.8218 122.437 71.403 123.063 71.1078 123.499C70.9605 123.717 70.8442 123.889 70.7621 124.008C70.7211 124.068 70.6876 124.115 70.6645 124.149C70.6531 124.165 70.6439 124.179 70.6371 124.189C70.6339 124.193 70.6314 124.198 70.6293 124.201C70.6282 124.203 70.6262 124.204 70.6254 124.205L70.6244 124.207C70.6151 124.202 70.4076 124.057 65.6107 120.706L70.6234 124.208C68.2655 127.599 63.594 128.42 60.1889 126.041C56.7838 123.662 55.9355 118.984 58.2934 115.593V115.592C58.296 115.588 58.301 115.581 58.308 115.571C58.3225 115.55 58.3464 115.516 58.3783 115.469C58.4425 115.376 58.5413 115.232 58.6693 115.042C58.9256 114.663 59.3006 114.103 59.7611 113.399C59.9541 113.104 60.1597 112.782 60.3793 112.441C60.4819 112.541 60.6072 112.665 60.7543 112.804ZM66.9408 101.043C67.2741 101.344 67.6608 101.683 68.0873 102.033C69.471 103.168 71.3731 104.524 73.2045 105.091C75.1547 105.695 77.676 105.607 79.6059 105.404C80.3733 105.323 81.0714 105.22 81.6381 105.126C79.9853 108.805 77.979 112.43 76.2494 115.36C76.2155 115.366 76.1806 115.374 76.1449 115.38C75.5552 115.486 74.7339 115.616 73.809 115.713C71.9175 115.912 69.7454 115.955 68.2084 115.479C66.7666 115.032 65.1141 113.891 63.7621 112.782C63.1007 112.239 62.5361 111.726 62.1381 111.349C61.9395 111.161 61.7822 111.007 61.6762 110.902C61.6234 110.849 61.5836 110.808 61.557 110.781C61.544 110.767 61.534 110.757 61.5277 110.75C61.525 110.748 61.5222 110.746 61.5209 110.744L61.5189 110.742L61.3656 110.888C61.9604 109.938 62.6068 108.884 63.2699 107.763C64.5739 105.558 65.8489 103.248 66.9408 101.043ZM71.1537 87.4651C71.1567 87.4669 71.1613 87.47 71.1664 87.473C71.1771 87.4791 71.1928 87.4882 71.2123 87.4993C71.2516 87.5217 71.3085 87.5536 71.3812 87.5941C71.5273 87.6752 71.7387 87.7904 72.0014 87.928C72.5263 88.203 73.2643 88.5712 74.1137 88.9437C75.7777 89.6734 78.0051 90.4796 79.933 90.5472C81.9426 90.6174 84.2811 89.9058 86.0619 89.221C85.6774 92.037 85.0803 95.0049 84.1664 98.3275C83.7579 99.8126 83.212 101.359 82.5814 102.919C82.5443 102.927 82.4972 102.938 82.4408 102.95C82.2802 102.983 82.0447 103.03 81.7504 103.083C81.1606 103.189 80.3386 103.319 79.4135 103.416C77.5221 103.615 75.3498 103.658 73.8129 103.182C72.3711 102.735 70.7185 101.594 69.3666 100.485C68.7595 99.9866 68.235 99.5128 67.8451 99.1468C68.6575 97.3654 69.3087 95.6988 69.7025 94.2669C70.3872 91.7775 70.8474 89.5866 71.1527 87.4642L71.1537 87.4651ZM72.0014 72.1175C72.5263 72.3925 73.2643 72.7606 74.1137 73.1331C75.7777 73.8628 78.0051 74.6691 79.933 74.7366C81.9862 74.8084 84.3838 74.0657 86.1781 73.3675C86.3324 73.3074 86.4823 73.2447 86.6293 73.1849C86.7321 78.1211 86.7856 82.4015 86.3305 86.9446C86.0416 87.068 85.7317 87.1976 85.4057 87.3245C83.6472 88.0087 81.5739 88.6163 79.9584 88.5599C78.4425 88.5068 76.5182 87.8404 74.892 87.1273C74.0965 86.7784 73.4032 86.4327 72.9096 86.1741C72.6635 86.0452 72.4674 85.9384 72.3344 85.8646C72.268 85.8277 72.2164 85.7976 72.183 85.7786C72.1668 85.7694 72.1546 85.7626 72.1469 85.7581C72.1433 85.7561 72.1407 85.7543 72.1391 85.7532L72.1361 85.7523L71.1547 87.4505C71.8274 82.7644 71.7385 78.409 71.602 71.9026C71.7164 71.9647 71.85 72.0382 72.0014 72.1175ZM84.5111 58.3226C85.4846 62.0914 86.4917 66.5106 86.5844 70.9554C86.5849 70.9788 86.5849 71.0023 86.5854 71.0257C86.2272 71.1823 85.8296 71.349 85.4057 71.514C83.6472 72.1982 81.5739 72.8058 79.9584 72.7493C78.4425 72.6963 76.5182 72.0299 74.892 71.3167C74.0965 70.9679 73.4032 70.6221 72.9096 70.3636C72.6635 70.2347 72.4674 70.1278 72.3344 70.054C72.268 70.0172 72.2164 69.9871 72.183 69.9681C72.1668 69.9589 72.1546 69.952 72.1469 69.9476C72.1433 69.9455 72.1407 69.9437 72.1391 69.9427L72.1361 69.9417L71.5775 70.9075C71.4535 67.2213 70.3743 63.5391 69.059 58.4407C69.4498 58.6276 69.8944 58.8334 70.3764 59.0384C72.0359 59.7441 74.2559 60.5205 76.1781 60.5775C78.2239 60.638 80.6187 59.9024 82.4145 59.2122C83.2357 58.8965 83.9605 58.5774 84.5111 58.3226ZM67.2475 41.4202C67.5362 41.7142 67.8652 42.0398 68.226 42.3763C69.519 43.5823 71.3101 45.0378 73.0893 45.722C74.983 46.4499 77.499 46.5478 79.4379 46.4905C80.4275 46.4613 81.3073 46.3893 81.9389 46.3255C81.964 46.323 81.9887 46.3192 82.0131 46.3167C82.1283 48.6281 82.6741 51.2511 83.5092 54.5013C83.6598 55.0873 83.8228 55.7025 83.9926 56.3431C83.9318 56.3722 83.8682 56.4048 83.8002 56.4368C83.2638 56.689 82.5113 57.0247 81.6498 57.3558C79.8893 58.0324 77.8113 58.636 76.1928 58.5882C74.6751 58.5432 72.7541 57.9011 71.1342 57.2122C70.3414 56.8751 69.6502 56.5406 69.1586 56.2903C68.9134 56.1655 68.7187 56.062 68.5863 55.9905C68.5201 55.9548 68.4692 55.926 68.4359 55.9075C68.432 55.9053 68.4286 55.9026 68.4252 55.9007C67.4187 51.6685 66.5518 46.6632 67.2475 41.4202ZM72.2953 26.7864C72.6816 27.1996 73.2108 27.7437 73.8314 28.3226C75.1245 29.5286 76.9155 30.9842 78.6947 31.6683C80.5885 32.3963 83.1044 32.4941 85.0434 32.4368C85.5046 32.4232 85.9418 32.3993 86.3412 32.3724C84.3732 36.045 82.704 39.9417 82.1791 43.055C82.1097 43.4669 82.0598 43.8853 82.0287 44.3118C81.9483 44.3207 81.8621 44.3328 81.7699 44.3421C81.1736 44.4024 80.3438 44.4689 79.4135 44.4964C77.5125 44.5526 75.3399 44.4371 73.8402 43.8607C72.4341 43.3201 70.872 42.0868 69.6098 40.9095C68.992 40.3333 68.4697 39.7927 68.102 39.3968C67.9251 39.2064 67.7851 39.0498 67.6879 38.9398C68.6347 34.6537 70.475 30.3623 72.2953 26.7864ZM79.0209 15.6429C81.4398 12.2952 86.1266 11.5598 89.4887 13.9993C92.8495 16.4383 93.6147 21.1273 91.1986 24.4749C91.1972 24.4769 91.1946 24.4807 91.1918 24.4847C91.1822 24.4981 91.1644 24.5225 91.14 24.5569C91.0903 24.6273 91.0107 24.7413 90.9057 24.8929C90.6955 25.1965 90.3832 25.6545 89.9994 26.2386C89.3272 27.2616 88.4457 28.6541 87.5102 30.2728C87.4664 30.2774 87.4211 30.2837 87.3744 30.2884C86.778 30.3487 85.9484 30.4152 85.018 30.4427C83.1172 30.4988 80.9453 30.3832 79.4457 29.8069C78.0396 29.2664 76.4774 28.033 75.2152 26.8558C74.5974 26.2795 74.0742 25.739 73.7064 25.3431C73.5301 25.1533 73.3905 24.997 73.2934 24.887C73.54 24.4321 73.7829 23.993 74.0199 23.5726C75.3096 21.2849 76.5394 19.3319 77.4496 17.9466C77.9063 17.2516 78.2873 16.6925 78.559 16.3001C78.6944 16.1046 78.803 15.9497 78.8812 15.8392C78.9203 15.784 78.9526 15.739 78.976 15.7064C78.9874 15.6904 78.9968 15.6767 79.0043 15.6663C79.0079 15.6612 79.0114 15.6564 79.0141 15.6527C79.0154 15.6508 79.0169 15.6483 79.018 15.6468L79.0199 15.6448C79.0248 15.6475 79.1135 15.7129 80.8842 16.9974C80.508 17.3196 80.2689 17.7972 80.2689 18.3314C80.2689 19.3016 81.0556 20.0882 82.0258 20.0882C82.7584 20.0881 83.3843 19.6387 83.6479 19.0013C84.091 19.3228 84.5768 19.6748 85.1088 20.0609L83.6488 19.0013C83.7342 18.7947 83.7826 18.5688 83.7826 18.3314C83.7826 17.3612 82.9959 16.5746 82.0258 16.5745C81.5904 16.5745 81.1921 16.7332 80.8852 16.9954L79.0209 15.6429Z" fill="url(#paint2_linear_138_390)"/>
<defs>
<linearGradient id="paint0_linear_138_390" x1="45.3511" y1="20.4929" x2="45.3511" y2="135.336" gradientUnits="userSpaceOnUse">
<stop stop-color="#EF6464"/>
<stop offset="1" stop-color="#893939"/>
</linearGradient>
<linearGradient id="paint1_linear_138_390" x1="104.649" y1="22.5974" x2="104.649" y2="137.44" gradientUnits="userSpaceOnUse">
<stop stop-color="#EF6464"/>
<stop offset="1" stop-color="#893939"/>
</linearGradient>
<linearGradient id="paint2_linear_138_390" x1="74.7837" y1="12.5598" x2="74.7837" y2="127.402" gradientUnits="userSpaceOnUse">
<stop stop-color="#EF6464"/>
<stop offset="1" stop-color="#893939"/>
</linearGradient>
</defs>
</svg>
