<svg width="150" height="150" viewBox="0 0 150 150" fill="none" xmlns="http://www.w3.org/2000/svg">
<path d="M74.456 141C76.8887 138.798 79.5817 135.886 80.1872 131.528C80.5753 128.793 79.7222 125.627 77.9151 123.455C77.9151 123.455 77.9151 123.455 77.9151 123.455C74.1566 118.99 70.0844 116.188 66.1756 113.259C64.2228 111.824 62.28 110.432 60.508 109.052C59.6278 108.364 58.7809 107.67 58.1015 107.027C57.7655 106.71 57.4693 106.398 57.2927 106.175C57.1155 105.981 57.0829 105.749 57.3162 106.303C56.2467 103.022 56.5758 100.796 57.6553 96.6561C57.9125 95.3215 59.9291 93.569 63.3384 91.3993C64.9958 90.2601 66.98 89.0761 69.0372 86.689C71.1998 84.4321 72.4561 79.7235 71.604 76.6007C71.0632 73.8767 69.8084 71.2953 68.2682 69.2367C60.1531 59.6744 49.3173 56.2782 51.6425 52.3859C51.687 52.1891 51.6152 52.356 51.5489 52.3794C51.4859 52.4095 51.6379 52.2459 52.1019 52.0731C53.0328 51.7064 54.7866 51.4563 56.711 51.2312C58.6619 50.9784 60.8658 50.7931 63.5064 49.9082C66.0588 49.1686 69.6355 46.5746 70.6764 43.1928C71.5183 41.192 71.6337 37.4349 69.8761 35.028C68.2316 32.6587 66.3887 31.7347 64.8278 30.9447C61.6617 29.4763 58.8784 28.8453 56.1984 28.1093C50.9382 26.8861 45.6942 24.6775 46.7218 23.4363C46.9195 21.6882 48.842 19.2374 51.0715 17.3085C53.2437 15.4011 55.8715 13.6316 58.4115 12.2236C58.9833 11.9241 59.4357 11.425 59.6588 10.8132C59.8821 10.2015 59.8593 9.53075 59.5935 8.94388C59.3278 8.35699 58.8386 7.89744 58.2317 7.66174C57.6246 7.42583 56.9511 7.43672 56.3488 7.66888C56.3488 7.66888 56.3488 7.66888 56.3488 7.66888C53.1392 8.99641 50.2178 10.533 47.3429 12.5524C44.4856 14.6888 41.3091 17.1145 39.8839 21.8675C39.2838 23.8358 39.5773 26.7864 40.9536 28.7289C42.2735 30.6947 43.8987 31.7755 45.3559 32.6417C48.3059 34.3158 51.0945 35.2128 53.7314 36.1493C56.3433 37.0603 58.9261 37.9329 60.7341 38.9542C61.6211 39.4317 62.1932 40.0472 62.0803 40.0243C62.0376 40.0153 61.9264 39.7739 61.9114 39.6626C61.8883 39.5484 61.8906 39.6109 61.7809 39.843C61.6537 40.0782 61.6053 40.08 61.4664 40.1724C61.3276 40.2576 61.0025 40.4238 60.4603 40.5727C59.371 40.8846 57.6462 41.0418 55.7189 41.1826C53.7635 41.3552 51.5836 41.4168 48.7935 42.279C46.0955 42.8858 42.0242 46.2542 41.3986 49.9009C40.43 53.2141 40.939 57.8638 42.9878 60.9752C44.9532 64.122 47.3344 65.975 49.4375 67.6039C53.663 70.742 57.5258 73.1502 59.4286 75.7836C60.1824 76.8052 60.6251 77.7609 60.8533 78.819C60.9249 79.1619 60.8986 79.2482 60.8998 79.2766C60.8963 79.3037 60.8823 79.4158 60.635 79.7297C60.1554 80.3643 58.826 81.3912 57.2577 82.4686C54.3109 84.6181 49.0706 87.5984 47.4519 94.1853C46.3639 98.198 45.7675 104.814 47.791 109.565C49.1322 112.717 50.3629 113.319 51.4456 114.403C52.5472 115.363 53.5984 116.147 54.6357 116.898C56.7054 118.385 58.7233 119.713 60.6863 121.044C64.5609 123.677 68.4881 126.381 70.9968 129.212C70.9969 129.212 70.9969 129.212 70.9969 129.212C71.8248 130.17 72.7036 130.914 73.5108 132.254C74.7794 134.292 75.4042 137.821 74.456 141Z" fill="#399E25"/>
<path d="M44.019 16.3215C43.9807 16.4746 44.0075 16.6437 44.0853 16.7889C44.1635 16.9343 44.2864 17.0438 44.4349 17.0962C44.5835 17.1486 44.7478 17.1404 44.9 17.0764C45.0516 17.0121 45.1786 16.8972 45.2449 16.754C45.2449 16.754 45.2449 16.754 45.2449 16.754C45.2935 16.6487 45.3429 16.5393 45.3912 16.4329C45.8746 15.3529 46.3518 14.2999 46.7734 13.127C47.0574 12.3868 47.4889 11.5718 47.9249 10.8046C47.9794 10.71 48.0377 10.6082 48.0886 10.5255C48.2657 10.2278 48.3092 9.8826 48.1927 9.5577C48.0771 9.23326 47.8111 8.95574 47.4699 8.79423C47.1288 8.63273 46.7455 8.60279 46.4213 8.71905C46.0961 8.83484 45.8567 9.08733 45.7387 9.41292C45.7387 9.41292 45.7387 9.41292 45.7387 9.41292C45.6911 9.53952 45.6533 9.64877 45.6129 9.765C45.3 10.6875 45.0081 11.5848 44.818 12.6324C44.6475 13.7095 44.3705 14.8645 44.101 15.9871C44.074 16.0983 44.045 16.2149 44.019 16.3215Z" fill="#399E25"/>
<path d="M59.9331 85.3833C59.978 85.6112 59.9243 85.8639 59.802 86.0793C59.6787 86.2952 59.4969 86.4562 59.2784 86.5333C59.0598 86.6104 58.8172 86.5991 58.5858 86.5084C58.3554 86.4174 58.155 86.2543 58.047 86.0487C58.047 86.0487 58.047 86.0487 58.047 86.0487C57.9924 85.9437 57.9374 85.8362 57.8834 85.7312C57.3424 84.6627 56.8113 83.6371 56.322 82.4384C56.0129 81.7809 55.5437 80.9881 55.0746 80.2627C55.0164 80.1739 54.9524 80.0742 54.9007 80.0032C54.6039 79.5569 54.5154 79.0359 54.6951 78.5359C54.8724 78.0369 55.3032 77.5998 55.8525 77.3398C56.4017 77.0797 57.0128 77.0235 57.5112 77.2026C58.0118 77.3805 58.3588 77.7791 58.5159 78.2916C58.5159 78.2916 58.5159 78.2916 58.5159 78.2916C58.5626 78.43 58.5948 78.5413 58.6315 78.6633C58.9113 79.6277 59.1656 80.5472 59.3304 81.6774C59.4334 82.7288 59.6564 83.9112 59.8683 85.0452C59.8895 85.1578 59.9131 85.2763 59.9331 85.3833Z" fill="#399E25"/>
<path d="M43.6889 47.76C43.644 47.9879 43.6977 48.2406 43.8199 48.456C43.9432 48.6719 44.1251 48.8329 44.3436 48.91C44.5621 48.9871 44.8047 48.9758 45.0362 48.8851C45.2666 48.7941 45.4669 48.631 45.575 48.4254C45.575 48.4254 45.575 48.4254 45.575 48.4254C45.6296 48.3204 45.6845 48.2129 45.7385 48.1079C46.2795 47.0394 46.8107 46.0138 47.2999 44.8151C47.6091 44.1576 48.0782 43.3648 48.5474 42.6394C48.6056 42.5506 48.6695 42.4509 48.7213 42.38C49.0181 41.9336 49.1065 41.4126 48.9268 40.9126C48.7495 40.4136 48.3187 39.9765 47.7695 39.7165C47.2202 39.4565 46.6091 39.4003 46.1108 39.5793C45.6101 39.7573 45.2632 40.1558 45.106 40.6683C45.106 40.6683 45.106 40.6683 45.106 40.6683C45.0594 40.8067 45.0271 40.918 44.9904 41.04C44.7106 42.0044 44.4564 42.9239 44.2915 44.0541C44.1886 45.1055 43.9656 46.2879 43.7537 47.4219C43.7324 47.5345 43.7089 47.653 43.6889 47.76Z" fill="#399E25"/>
<path d="M43.9825 23.3176C43.7803 23.2002 43.6253 22.9926 43.5446 22.7575C43.4644 22.5214 43.4651 22.277 43.5535 22.0611C43.642 21.8452 43.813 21.6706 44.0359 21.5586C44.2583 21.4477 44.5144 21.4086 44.7409 21.4669C44.7409 21.4669 44.7409 21.4669 44.7409 21.4669C44.837 21.4879 44.963 21.5188 45.0749 21.5431C46.2191 21.7934 47.6842 22.026 48.3029 21.8131C48.6083 21.6766 49.3027 21.2011 49.8104 20.6735C49.8726 20.6089 49.9628 20.5194 49.9759 20.4875C50.341 20.0959 50.8281 19.8884 51.3566 19.9433C51.8835 19.9963 52.4085 20.3073 52.7896 20.7752C53.1707 21.2431 53.369 21.8202 53.3143 22.347C53.2611 22.8756 52.9593 23.3106 52.5019 23.589C52.5019 23.589 52.5019 23.589 52.5019 23.589C52.3247 23.7095 52.2177 23.7663 52.0805 23.8447C51.0739 24.3708 50.1054 24.8893 48.546 24.9464C46.593 24.7916 45.5836 24.1117 44.3347 23.5083C44.2194 23.447 44.1059 23.3856 43.9825 23.3176Z" fill="#399E25"/>
<path d="M65.036 35.1772C64.8793 35.1716 64.7246 35.0992 64.6066 34.985C64.4885 34.8703 64.4168 34.7232 64.4066 34.5669C64.3964 34.4107 64.4484 34.2555 64.5505 34.1264C64.6527 33.9978 64.7966 33.9059 64.9513 33.88C64.9513 33.88 64.9513 33.88 64.9513 33.88C65.046 33.8627 65.1548 33.843 65.258 33.8231C66.2284 33.6321 67.2439 33.4005 68.034 33.0541C68.7424 32.7238 69.5226 32.2174 70.2444 31.7104C70.3266 31.6519 70.4174 31.5878 70.4862 31.5349C70.7655 31.3297 71.1044 31.2534 71.4385 31.3401C71.772 31.4258 72.0735 31.6675 72.2663 31.9945C72.4591 32.3216 72.5246 32.7024 72.4381 33.0357C72.3522 33.37 72.1214 33.6296 71.8066 33.7746C71.8066 33.7746 71.8066 33.7746 71.8066 33.7746C71.6899 33.8304 71.59 33.8746 71.4838 33.9218C70.5758 34.3147 69.6929 34.6824 68.63 34.9384C67.4629 35.1789 66.4376 35.1825 65.3766 35.183C65.2634 35.1819 65.1536 35.18 65.036 35.1772Z" fill="#399E25"/>
<path d="M44.4359 55.8095C44.5926 55.8039 44.7473 55.7316 44.8654 55.6174C44.9834 55.5027 45.0551 55.3555 45.0653 55.1993C45.0755 55.043 45.0236 54.8878 44.9214 54.7587C44.8193 54.6301 44.6753 54.5382 44.5206 54.5123C44.5206 54.5123 44.5206 54.5123 44.5206 54.5123C44.4259 54.495 44.3171 54.4753 44.2139 54.4554C43.2435 54.2644 42.228 54.0328 41.4379 53.6864C40.7295 53.3561 39.9493 52.8498 39.2275 52.3427C39.1453 52.2842 39.0546 52.2201 38.9857 52.1672C38.7064 51.962 38.3676 51.8858 38.0334 51.9725C37.6999 52.0582 37.3985 52.2998 37.2056 52.6269C37.0128 52.9539 36.9473 53.3347 37.0338 53.668C37.1197 54.0024 37.3506 54.2619 37.6653 54.407C37.6653 54.407 37.6653 54.407 37.6653 54.407C37.782 54.4628 37.8819 54.5069 37.9882 54.5541C38.8962 54.947 39.779 55.3147 40.8419 55.5708C42.009 55.8113 43.0343 55.8149 44.0953 55.8153C44.2085 55.8142 44.3184 55.8124 44.4359 55.8095Z" fill="#399E25"/>
<path d="M45.7542 30.3098C45.9149 30.3216 46.0788 30.2661 46.2088 30.162C46.3388 30.0575 46.4243 29.913 46.4474 29.7537C46.4706 29.5943 46.4297 29.4314 46.3347 29.2943C46.2397 29.1575 46.0984 29.0577 45.941 29.0233C45.941 29.0233 45.941 29.0233 45.941 29.0233C45.8007 28.9917 45.6478 28.9564 45.4996 28.9212C44.1212 28.5872 42.7106 28.2112 41.4961 27.6925C40.379 27.1893 39.2272 26.4961 38.1261 25.7991C38.0003 25.7187 37.8679 25.6338 37.7539 25.5575C37.4655 25.3669 37.1207 25.3052 36.7884 25.3983C36.4565 25.4906 36.1643 25.7301 35.9831 26.0518C35.8018 26.3734 35.7483 26.7474 35.8412 27.0791C35.9337 27.4116 36.165 27.6746 36.4774 27.8225C36.4774 27.8225 36.4774 27.8225 36.4774 27.8225C36.631 27.8962 36.7725 27.9612 36.9191 28.0283C38.1844 28.5974 39.4345 29.1407 40.8444 29.5528C42.3682 29.9588 43.8102 30.1205 45.2792 30.2683C45.4375 30.2832 45.5932 30.297 45.7542 30.3098Z" fill="#399E25"/>
<path d="M51.1841 98.1914C51.3158 98.2844 51.4848 98.3212 51.6498 98.2989C51.8151 98.2764 51.9629 98.1966 52.0648 98.0719C52.1667 97.9473 52.2156 97.7866 52.2049 97.6201C52.1939 97.454 52.1242 97.2956 52.007 97.185C52.007 97.185 52.007 97.185 52.007 97.185C51.9031 97.0857 51.7902 96.9767 51.6813 96.8702C50.672 95.8737 49.6568 94.8247 48.8831 93.7543C48.1849 92.7475 47.555 91.5599 46.9704 90.3953C46.904 90.2615 46.8343 90.1206 46.7759 89.9964C46.6269 89.6845 46.3632 89.454 46.0304 89.3626C45.6984 89.2707 45.3246 89.3254 45.0035 89.5077C44.6824 89.69 44.4439 89.9829 44.3526 90.3151C44.2606 90.6477 44.3234 90.9923 44.5148 91.2801C44.5148 91.2801 44.5148 91.2801 44.5148 91.2801C44.6085 91.4224 44.6963 91.551 44.7874 91.684C45.5786 92.8236 46.3701 93.9334 47.3662 95.013C48.4629 96.146 49.6155 97.0276 50.7984 97.9111C50.9264 98.0054 51.0527 98.0975 51.1841 98.1914Z" fill="#399E25"/>
<path d="M63.7112 48.3666C63.5873 48.3428 63.4757 48.2683 63.4004 48.1632C63.3251 48.058 63.2922 47.9308 63.3096 47.806C63.3269 47.6811 63.3932 47.5678 63.4944 47.487C63.5955 47.4065 63.7232 47.3653 63.8489 47.3762C63.8489 47.3762 63.8489 47.3762 63.8489 47.3762C63.9958 47.3876 64.1616 47.3989 64.319 47.4079C65.8522 47.4836 67.4781 47.5117 68.8098 47.1662C69.9118 46.8317 71.0586 46.1337 72.1092 45.4144C72.2334 45.328 72.3676 45.2333 72.475 45.1522C72.6878 44.9933 72.951 44.9294 73.2113 44.9812C73.4713 45.0327 73.707 45.1956 73.8622 45.4276C74.0173 45.6595 74.0778 45.9396 74.026 46.1995C73.9745 46.4599 73.8149 46.6788 73.5868 46.8147C73.5868 46.8147 73.5868 46.8147 73.5868 46.8147C73.4244 46.9121 73.2831 46.991 73.1334 47.0739C71.8937 47.7374 70.6553 48.3645 69.1427 48.666C67.3674 48.9199 65.8027 48.6856 64.2037 48.4515C64.0402 48.425 63.8769 48.3974 63.7112 48.3666Z" fill="#399E25"/>
<path d="M51.5542 104.343C51.3959 104.31 51.2535 104.211 51.1573 104.075C51.0612 103.938 51.0192 103.775 51.0414 103.615C51.0637 103.455 51.1486 103.31 51.2783 103.205C51.408 103.1 51.572 103.044 51.7332 103.055C51.7332 103.055 51.7332 103.055 51.7332 103.055C51.8773 103.064 52.0435 103.073 52.1999 103.079C53.7233 103.131 55.3583 103.128 56.6236 102.769C57.6639 102.429 58.7969 101.721 59.8193 100.993C59.9396 100.906 60.0727 100.809 60.1719 100.73C60.4455 100.519 60.7851 100.432 61.1235 100.5C61.4615 100.567 61.7705 100.782 61.9752 101.088C62.1798 101.394 62.2612 101.762 62.1938 102.1C62.1269 102.439 61.9168 102.719 61.6172 102.892C61.6172 102.892 61.6172 102.892 61.6172 102.892C61.4466 102.992 61.3042 103.068 61.1506 103.15C59.8827 103.806 58.6305 104.422 57.0563 104.719C55.2145 104.959 53.659 104.694 52.0501 104.436C51.8856 104.407 51.7227 104.377 51.5542 104.343Z" fill="#399E25"/>
<path d="M65.2648 77.3376C65.1139 77.3943 64.9411 77.3873 64.787 77.3242C64.6328 77.2606 64.5099 77.1461 64.4427 76.9998C64.3756 76.8535 64.3688 76.6857 64.4211 76.5273C64.4736 76.3693 64.581 76.2336 64.7223 76.1562C64.7223 76.1562 64.7223 76.1562 64.7223 76.1562C64.8479 76.0862 64.9847 76.0092 65.1169 75.9336C66.3449 75.2239 67.5919 74.4649 68.6106 73.6244C69.5401 72.8262 70.4493 71.8359 71.3087 70.8564C71.4067 70.7437 71.5097 70.6249 71.5976 70.5195C71.8204 70.2552 72.1337 70.0987 72.4788 70.0941C72.8232 70.089 73.1711 70.2362 73.4359 70.4936C73.7006 70.751 73.8575 71.0946 73.8621 71.4391C73.8672 71.7841 73.7196 72.1017 73.4617 72.3319C73.4617 72.3319 73.4617 72.3319 73.4617 72.3319C73.3351 72.446 73.2177 72.5483 73.096 72.6541C72.043 73.5572 70.9972 74.4314 69.761 75.2249C68.4139 76.0447 67.0762 76.607 65.7088 77.1636C65.5611 77.2226 65.4156 77.2798 65.2648 77.3376Z" fill="#399E25"/>
<path d="M53.001 62.2111C52.7616 62.2196 52.5171 62.1257 52.3235 61.9647C52.1298 61.8029 52.0029 61.5873 51.9685 61.3505C51.9341 61.1138 51.9945 60.871 52.1342 60.6608C52.274 60.4514 52.4817 60.2918 52.7137 60.2319C52.7137 60.2319 52.7137 60.2319 52.7137 60.2319C52.8483 60.1951 53.0005 60.1542 53.146 60.1135C54.5001 59.7293 55.9021 59.2956 57.0335 58.7466C58.0717 58.2189 59.1971 57.4853 60.2539 56.7539C60.3741 56.6698 60.504 56.5796 60.6074 56.5026C61.0411 56.1917 61.5629 56.0814 62.0743 56.2248C62.5847 56.3666 63.0429 56.7505 63.3317 57.263C63.6205 57.7756 63.7116 58.3664 63.5685 58.8764C63.4264 59.3882 63.0617 59.7773 62.5712 59.9873C62.5712 59.9873 62.5712 59.9873 62.5712 59.9873C62.4069 60.0603 62.263 60.1199 62.1108 60.1835C60.8013 60.718 59.5247 61.221 58.0359 61.6086C56.429 61.9843 54.9784 62.0882 53.4851 62.1859C53.3241 62.1953 53.1676 62.2034 53.001 62.2111Z" fill="#399E25"/>
<path d="M68.3903 122.094C68.0185 122.416 67.7478 122.959 67.603 123.508C67.4602 124.063 67.4551 124.58 67.6235 125.038C67.7919 125.497 68.1299 125.888 68.5978 126.218C69.0637 126.544 69.6213 126.782 70.1132 126.788C70.1132 126.788 70.1132 126.788 70.1132 126.788C72.5731 126.754 75.3304 127.386 77.4781 126.438C78.1837 126.126 78.8831 125.808 79.5899 125.478C83.0353 123.854 86.4489 122.094 89.8391 119.734C91.5331 118.528 93.2269 117.226 94.9038 115.246C96.4023 113.463 98.7772 109.797 97.2904 105.301C96.1967 102.064 96.4824 99.8775 97.5339 95.7259C97.7533 94.4167 99.7509 92.637 103.154 90.4568C104.807 89.3116 106.788 88.1225 108.84 85.735C110.998 83.4771 112.25 78.777 111.4 75.658C110.101 69.0864 105.221 64.7418 101.451 61.9413C98.3326 59.6176 95.2915 57.7503 93.3675 55.9262C92.4071 55.0263 91.8454 54.2258 91.621 53.6398C91.3971 53.0558 91.3248 52.4761 91.5368 51.4595C91.5808 51.2753 91.5023 51.4611 91.4241 51.4982C91.3493 51.5422 91.4889 51.3858 91.9451 51.2174C92.86 50.8593 94.6093 50.6112 96.5338 50.3886C98.4853 50.1379 100.694 49.9552 103.353 49.0664C105.922 48.3252 109.542 45.703 110.594 42.2862C111.445 40.2689 111.564 36.4587 109.783 34.0212C108.118 31.6224 106.26 30.694 104.691 29.8999C101.508 28.4253 98.7224 27.7973 96.0413 27.0644C90.7674 25.8512 85.5889 23.6402 86.6026 22.5058C86.798 20.6501 88.9529 18.0111 91.3847 15.9782C93.4413 14.2307 95.8705 12.5949 98.2241 11.2774C98.7934 10.9759 99.2445 10.4771 99.4668 9.86591C99.6892 9.25493 99.6664 8.58549 99.4012 7.9999C99.1361 7.41431 98.6479 6.95561 98.042 6.71977C97.436 6.4837 96.7636 6.49367 96.1614 6.7227C96.1614 6.7227 96.1614 6.7227 96.1614 6.7227C93.1609 7.94718 90.4513 9.34679 87.7549 11.1464C84.6674 13.3542 81.2001 15.7975 79.6284 20.9057C79.0205 22.8857 79.3131 25.867 80.7001 27.8286C82.0298 29.8135 83.664 30.9022 85.1262 31.7744C88.0865 33.46 90.8773 34.3615 93.5138 35.3018C96.1245 36.2159 98.7047 37.0915 100.496 38.1066C101.375 38.58 101.932 39.1911 101.798 39.1387C101.746 39.1151 101.627 38.8514 101.612 38.7208C101.588 38.5872 101.594 38.6356 101.488 38.8573C101.367 39.0766 101.332 39.0596 101.208 39.1406C101.084 39.2141 100.772 39.3756 100.239 39.5222C99.1676 39.83 97.448 39.9899 95.5213 40.1328C93.566 40.308 91.3816 40.3715 88.5755 41.2423C85.8627 41.854 81.7534 45.2605 81.1296 48.9349C79.3794 54.018 82.4151 61.072 85.794 63.8033C89.0873 66.9265 92.258 68.7646 94.863 70.75C98.1606 73.1794 100.231 75.4947 100.683 77.8693C100.755 78.2141 100.729 78.3035 100.728 78.3345C100.723 78.3642 100.707 78.4777 100.457 78.7913C99.9729 79.4255 98.6402 80.4474 97.0678 81.5188C94.1144 83.6577 88.8551 86.6109 87.1986 93.2232C86.0825 97.2239 85.4428 103.88 87.442 108.674C87.3197 108.354 87.4095 107.868 87.42 107.924C87.4283 107.949 87.2591 108.304 86.9382 108.698C86.2838 109.525 85.1502 110.515 83.9034 111.422C81.3756 113.257 78.3555 114.917 75.2734 116.42C74.6388 116.729 74.0069 117.028 73.367 117.323C71.4477 118.205 70.0647 120.574 68.3903 122.094Z" fill="#399E25"/>
<path d="M83.8318 15.3752C83.7936 15.5283 83.8203 15.6974 83.8981 15.8426C83.9764 15.988 84.0992 16.0975 84.2478 16.1499C84.3963 16.2023 84.5607 16.1941 84.7128 16.1301C84.8645 16.0658 84.9915 15.9509 85.0578 15.8078C85.0578 15.8078 85.0578 15.8078 85.0578 15.8078C85.1063 15.7024 85.1558 15.593 85.204 15.4866C85.6875 14.4067 86.1647 13.3536 86.5863 12.1807C86.8702 11.4405 87.3018 10.6255 87.7378 9.85832C87.7922 9.76367 87.8506 9.66194 87.9015 9.57919C88.0785 9.28154 88.1221 8.93631 88.0055 8.61141C87.89 8.28697 87.6239 8.00945 87.2828 7.84794C86.9417 7.68644 86.5584 7.6565 86.2342 7.77276C85.909 7.88855 85.6696 8.14104 85.5515 8.46663C85.5515 8.46663 85.5515 8.46663 85.5515 8.46663C85.504 8.59323 85.4662 8.70248 85.4258 8.81871C85.1128 9.74122 84.821 10.6386 84.6308 11.6861C84.4603 12.7632 84.1834 13.9182 83.9139 15.0408C83.8869 15.152 83.8579 15.2686 83.8318 15.3752Z" fill="#399E25"/>
<path d="M99.7459 84.437C99.7908 84.6649 99.7371 84.9176 99.6149 85.133C99.4916 85.3489 99.3098 85.5099 99.0912 85.587C98.8727 85.6641 98.6301 85.6528 98.3986 85.5621C98.1683 85.4711 97.9679 85.308 97.8599 85.1024C97.8599 85.1024 97.8599 85.1024 97.8599 85.1024C97.8052 84.9974 97.7503 84.89 97.6963 84.7849C97.1553 83.7164 96.6241 82.6908 96.1349 81.4921C95.8257 80.8346 95.3566 80.0418 94.8874 79.3164C94.8292 79.2276 94.7653 79.1279 94.7135 79.057C94.4167 78.6106 94.3283 78.0896 94.508 77.5896C94.6853 77.0906 95.1161 76.6535 95.6653 76.3935C96.2146 76.1335 96.8257 76.0773 97.324 76.2563C97.8247 76.4343 98.1717 76.8328 98.3288 77.3453C98.3288 77.3453 98.3288 77.3453 98.3288 77.3453C98.3755 77.4837 98.4077 77.595 98.4444 77.717C98.7242 78.6814 98.9784 79.6009 99.1433 80.7311C99.2462 81.7825 99.4692 82.9649 99.6811 84.099C99.7024 84.2115 99.726 84.33 99.7459 84.437Z" fill="#399E25"/>
<path d="M83.5018 46.8137C83.4569 47.0416 83.5105 47.2943 83.6328 47.5098C83.7561 47.7256 83.9379 47.8866 84.1565 47.9637C84.375 48.0408 84.6176 48.0295 84.849 47.9389C85.0794 47.8478 85.2798 47.6847 85.3878 47.4791C85.3878 47.4791 85.3878 47.4791 85.3878 47.4791C85.4425 47.3741 85.4974 47.2667 85.5514 47.1616C86.0924 46.0931 86.6235 45.0675 87.1128 43.8688C87.422 43.2113 87.8911 42.4185 88.3602 41.6931C88.4185 41.6043 88.4824 41.5046 88.5342 41.4337C88.831 40.9873 88.9194 40.4663 88.7397 39.9663C88.5624 39.4673 88.1316 39.0302 87.5823 38.7702C87.0331 38.5102 86.422 38.454 85.9236 38.633C85.423 38.811 85.076 39.2095 84.9189 39.722C84.9189 39.722 84.9189 39.722 84.9189 39.722C84.8722 39.8604 84.84 39.9717 84.8033 40.0937C84.5235 41.0581 84.2693 41.9776 84.1044 43.1078C84.0015 44.1592 83.7784 45.3416 83.5665 46.4757C83.5453 46.5882 83.5217 46.7068 83.5018 46.8137Z" fill="#399E25"/>
<path d="M83.7954 22.3715C83.5931 22.2542 83.4381 22.0466 83.3575 21.8115C83.2772 21.5753 83.2779 21.3309 83.3664 21.115C83.4549 20.8991 83.6259 20.7245 83.8487 20.6126C84.0712 20.5017 84.3273 20.4626 84.5537 20.5209C84.5537 20.5209 84.5537 20.5209 84.5537 20.5209C84.6499 20.5419 84.7759 20.5728 84.8878 20.5971C86.032 20.8474 87.4971 21.08 88.1157 20.8671C88.4212 20.7306 89.1156 20.2551 89.6232 19.7274C89.6855 19.6628 89.7757 19.5734 89.7887 19.5415C90.1539 19.1499 90.641 18.9424 91.1694 18.9973C91.6963 19.0503 92.2214 19.3613 92.6025 19.8292C92.9836 20.2971 93.1819 20.8742 93.1271 21.4009C93.074 21.9296 92.7722 22.3646 92.3148 22.6429C92.3148 22.6429 92.3148 22.6429 92.3148 22.6429C92.1375 22.7635 92.0305 22.8202 91.8933 22.8987C90.8868 23.4247 89.9183 23.9433 88.3589 24.0004C86.4058 23.8456 85.3965 23.1657 84.1475 22.5623C84.0322 22.501 83.9188 22.4395 83.7954 22.3715Z" fill="#399E25"/>
<path d="M104.849 34.2309C104.692 34.2253 104.537 34.1529 104.419 34.0388C104.301 33.924 104.23 33.7769 104.219 33.6206C104.209 33.4644 104.261 33.3092 104.363 33.1801C104.466 33.0515 104.609 32.9596 104.764 32.9337C104.764 32.9337 104.764 32.9337 104.764 32.9337C104.859 32.9164 104.968 32.8967 105.071 32.8768C106.041 32.6858 107.057 32.4542 107.847 32.1078C108.555 31.7775 109.335 31.2712 110.057 30.7641C110.14 30.7056 110.23 30.6415 110.299 30.5886C110.578 30.3834 110.917 30.3071 111.251 30.3938C111.585 30.4795 111.886 30.7212 112.079 31.0483C112.272 31.3753 112.337 31.7561 112.251 32.0894C112.165 32.4237 111.934 32.6833 111.619 32.8283C111.619 32.8283 111.619 32.8283 111.619 32.8283C111.503 32.8841 111.403 32.9283 111.297 32.9755C110.389 33.3684 109.506 33.7361 108.443 33.9922C107.276 34.2326 106.25 34.2362 105.189 34.2367C105.076 34.2356 104.966 34.2338 104.849 34.2309Z" fill="#399E25"/>
<path d="M84.2488 54.8633C84.4055 54.8577 84.5602 54.7853 84.6782 54.6711C84.7963 54.5564 84.868 54.4092 84.8782 54.253C84.8884 54.0967 84.8364 53.9415 84.7343 53.8124C84.6321 53.6838 84.4882 53.5919 84.3335 53.566C84.3335 53.566 84.3335 53.566 84.3335 53.566C84.2388 53.5487 84.13 53.529 84.0268 53.5092C83.0564 53.3181 82.0409 53.0865 81.2508 52.7401C80.5423 52.4098 79.7622 51.9035 79.0404 51.3964C78.9582 51.3379 78.8674 51.2738 78.7986 51.2209C78.5193 51.0158 78.1804 50.9395 77.8463 51.0262C77.5128 51.1119 77.2113 51.3535 77.0185 51.6806C76.8257 52.0077 76.7602 52.3884 76.8467 52.7217C76.9326 53.0561 77.1634 53.3156 77.4782 53.4607C77.4782 53.4607 77.4782 53.4607 77.4782 53.4607C77.5949 53.5165 77.6948 53.5606 77.801 53.6078C78.709 54.0007 79.5919 54.3684 80.6548 54.6245C81.8218 54.865 82.8472 54.8686 83.9082 54.869C84.0213 54.8679 84.1312 54.8661 84.2488 54.8633Z" fill="#399E25"/>
<path d="M85.5671 29.3633C85.7278 29.3751 85.8917 29.3196 86.0216 29.2155C86.1517 29.111 86.2372 28.9664 86.2603 28.8071C86.2834 28.6478 86.2426 28.4849 86.1476 28.3477C86.0526 28.211 85.9113 28.1112 85.7538 28.0768C85.7538 28.0768 85.7538 28.0768 85.7538 28.0768C85.6136 28.0451 85.4607 28.0099 85.3125 27.9747C83.934 27.6407 82.5235 27.2647 81.3089 26.746C80.1918 26.2428 79.04 25.5495 77.9389 24.8526C77.8132 24.7721 77.6808 24.6873 77.5667 24.6109C77.2784 24.4204 76.9336 24.3587 76.6013 24.4517C76.2694 24.5441 75.9772 24.7836 75.7959 25.1052C75.6147 25.4269 75.5611 25.8009 75.654 26.1326C75.7465 26.465 75.9779 26.728 76.2903 26.876C76.2903 26.876 76.2903 26.876 76.2903 26.876C76.4439 26.9497 76.5854 27.0147 76.732 27.0818C77.9973 27.6508 79.2474 28.1942 80.6573 28.6063C82.1811 29.0123 83.6231 29.174 85.0921 29.3218C85.2504 29.3367 85.4061 29.3505 85.5671 29.3633Z" fill="#399E25"/>
<path d="M90.997 97.2451C91.1286 97.3381 91.2976 97.3749 91.4627 97.3527C91.628 97.3301 91.7757 97.2503 91.8776 97.1256C91.9796 97.001 92.0284 96.8403 92.0177 96.6738C92.0068 96.5077 91.9371 96.3493 91.8199 96.2388C91.8199 96.2388 91.8199 96.2388 91.8199 96.2388C91.716 96.1394 91.6031 96.0304 91.4942 95.9239C90.4849 94.9274 89.4697 93.8784 88.696 92.8081C87.9978 91.8013 87.3678 90.6136 86.7832 89.449C86.7169 89.3153 86.6472 89.1743 86.5887 89.0501C86.4398 88.7382 86.176 88.5077 85.8433 88.4163C85.5113 88.3244 85.1375 88.3791 84.8164 88.5614C84.4953 88.7437 84.2567 89.0367 84.1655 89.3688C84.0735 89.7014 84.1362 90.046 84.3277 90.3338C84.3277 90.3338 84.3277 90.3338 84.3277 90.3338C84.4214 90.4761 84.5092 90.6047 84.6003 90.7377C85.3915 91.8773 86.183 92.9871 87.179 94.0667C88.2758 95.1998 89.4284 96.0813 90.6112 96.9648C90.7393 97.0591 90.8656 97.1512 90.997 97.2451Z" fill="#399E25"/>
<path d="M103.524 47.4203C103.4 47.3965 103.289 47.322 103.213 47.2169C103.138 47.1117 103.105 46.9845 103.122 46.8597C103.14 46.7349 103.206 46.6215 103.307 46.5408C103.408 46.4603 103.536 46.419 103.662 46.4299C103.662 46.4299 103.662 46.4299 103.662 46.4299C103.809 46.4413 103.974 46.4526 104.132 46.4616C105.665 46.5374 107.291 46.5654 108.623 46.22C109.725 45.8854 110.871 45.1874 111.922 44.4681C112.046 44.3817 112.18 44.287 112.288 44.2059C112.501 44.047 112.764 43.9831 113.024 44.035C113.284 44.0864 113.52 44.2493 113.675 44.4813C113.83 44.7132 113.891 44.9933 113.839 45.2532C113.787 45.5136 113.628 45.7325 113.4 45.8684C113.4 45.8684 113.4 45.8684 113.4 45.8684C113.237 45.9658 113.096 46.0448 112.946 46.1276C111.707 46.7911 110.468 47.4182 108.956 47.7197C107.18 47.9736 105.616 47.7393 104.017 47.5053C103.853 47.4787 103.69 47.4512 103.524 47.4203Z" fill="#399E25"/>
<path d="M91.3668 103.397C91.2086 103.364 91.0661 103.265 90.97 103.129C90.8738 102.992 90.8318 102.829 90.8541 102.669C90.8763 102.509 90.9612 102.364 91.091 102.259C91.2207 102.154 91.3846 102.098 91.5458 102.109C91.5458 102.109 91.5458 102.109 91.5458 102.109C91.69 102.118 91.8561 102.127 92.0125 102.133C93.5359 102.185 95.1709 102.182 96.4362 101.823C97.4765 101.483 98.6096 100.775 99.6319 100.047C99.7522 99.9602 99.8853 99.8631 99.9845 99.7844C100.258 99.5734 100.598 99.4864 100.936 99.5538C101.274 99.6206 101.583 99.8364 101.788 100.142C101.992 100.448 102.074 100.816 102.006 101.154C101.94 101.493 101.729 101.773 101.43 101.946C101.43 101.946 101.43 101.946 101.43 101.946C101.259 102.046 101.117 102.122 100.963 102.204C99.6953 102.86 98.4431 103.476 96.8689 103.773C95.0271 104.013 93.4716 103.748 91.8627 103.49C91.6982 103.461 91.5353 103.431 91.3668 103.397Z" fill="#399E25"/>
<path d="M105.078 76.3913C104.927 76.448 104.754 76.441 104.6 76.3779C104.446 76.3143 104.323 76.1998 104.256 76.0535C104.188 75.9072 104.182 75.7394 104.234 75.581C104.287 75.423 104.394 75.2873 104.535 75.2099C104.535 75.2099 104.535 75.2099 104.535 75.2099C104.661 75.1399 104.798 75.0629 104.93 74.9873C106.158 74.2776 107.405 73.5186 108.423 72.6781C109.353 71.8799 110.262 70.8896 111.122 69.9101C111.22 69.7974 111.323 69.6786 111.41 69.5732C111.633 69.3089 111.947 69.1524 112.292 69.1478C112.636 69.1427 112.984 69.2899 113.249 69.5473C113.513 69.8047 113.67 70.1483 113.675 70.4928C113.68 70.8378 113.532 71.1555 113.275 71.3856C113.275 71.3856 113.275 71.3856 113.275 71.3856C113.148 71.4997 113.031 71.602 112.909 71.7078C111.856 72.6109 110.81 73.4852 109.574 74.2787C108.227 75.0984 106.889 75.6607 105.522 76.2173C105.374 76.2763 105.228 76.3335 105.078 76.3913Z" fill="#399E25"/>
<path d="M92.8136 61.2646C92.5742 61.2731 92.3297 61.1791 92.1361 61.0182C91.9424 60.8563 91.8155 60.6408 91.7811 60.404C91.7468 60.1673 91.8071 59.9245 91.9468 59.7143C92.0866 59.5049 92.2943 59.3453 92.5263 59.2853C92.5263 59.2853 92.5263 59.2853 92.5263 59.2853C92.661 59.2486 92.8131 59.2076 92.9586 59.167C94.3127 58.7828 95.7147 58.3491 96.8461 57.8001C97.8843 57.2724 99.0097 56.5387 100.067 55.8073C100.187 55.7233 100.317 55.6331 100.42 55.556C100.854 55.2452 101.375 55.1349 101.887 55.2783C102.397 55.4201 102.856 55.804 103.144 56.3165C103.433 56.829 103.524 57.4198 103.381 57.9299C103.239 58.4416 102.874 58.8308 102.384 59.0408C102.384 59.0408 102.384 59.0408 102.384 59.0408C102.22 59.1138 102.076 59.1734 101.923 59.2369C100.614 59.7715 99.3374 60.2745 97.8486 60.6621C96.2416 61.0377 94.7911 61.1417 93.2977 61.2394C93.1367 61.2488 92.9802 61.2568 92.8136 61.2646Z" fill="#399E25"/>
</svg>
