<svg width="150" height="150" viewBox="0 0 150 150" fill="none" xmlns="http://www.w3.org/2000/svg">
<path fill-rule="evenodd" clip-rule="evenodd" d="M75.812 12.0024C87.8958 12.1548 99.1594 15.7107 108.69 21.7534C107.605 22.8742 106.862 24.4643 106.6 26.2026C106.281 28.3188 106.708 30.4353 107.811 31.9243C108.913 33.4227 110.6 34.1712 112.478 34.1675C112.465 34.1361 112.676 34.1425 112.805 34.1382C112.943 34.1346 113.098 34.1359 113.25 34.1382C114.671 34.1619 116.142 34.3228 117.304 34.5562C117.882 34.669 118.381 34.8089 118.685 34.8765C119.002 34.9429 119.031 34.8997 118.992 34.4712C119.049 34.2743 119.225 34.2446 119.326 34.5073C119.43 34.7597 119.447 35.2333 119.362 35.7759C119.194 36.8753 118.661 38.226 117.993 39.4829C117.85 39.759 117.642 40.0975 117.564 40.27C117.112 40.9397 116.942 41.8262 117.04 42.6851C117.14 43.5465 117.5 44.3111 118.092 44.8579C118.685 45.4047 119.475 45.7032 120.342 45.7349C121.206 45.7637 122.075 45.5229 122.707 45.019C123.135 44.6319 123.429 44.3623 123.765 44.0327C124.832 42.784 126.212 41.5157 127.289 39.8433C129.987 43.8485 132.236 48.1809 133.966 52.7681C133.089 52.8644 132.198 53.1054 131.342 53.4819C129.374 54.3486 127.805 55.8452 127.137 57.5737C126.461 59.306 126.739 61.1291 127.756 62.7095C127.769 62.6662 127.874 62.8421 127.944 62.9409C128.017 63.0476 128.096 63.1715 128.171 63.2915C128.884 64.4374 129.51 65.7021 129.918 66.7495C130.377 67.7925 130.334 68.6131 130.816 68.2007C131.174 68.1886 130.926 68.8582 129.99 69.355C129.09 69.8669 127.775 70.2482 126.45 70.4614C126.162 70.5124 125.781 70.5472 125.623 70.5894C124.819 70.625 124.006 71.0151 123.375 71.6021C122.743 72.193 122.342 72.933 122.251 73.73C122.161 74.5272 122.387 75.3378 122.872 76.0552C123.356 76.7684 124.059 77.33 124.834 77.5444C125.403 77.6611 125.779 77.7347 126.238 77.8081C129.506 78.1071 133.678 79.0298 137.999 75.3569C137.805 109.986 109.676 137.998 75.0015 137.998C50.0898 137.998 28.5565 123.538 18.3335 102.554C22.2282 104.842 26.9811 106.778 33.5386 104.259C41.9373 98.995 42.4452 92.5491 44.2173 86.813C44.3652 86.1537 44.4956 85.5925 44.6255 84.7456C44.9617 82.9093 44.5324 81.091 43.3198 79.6821C42.1139 78.2741 40.2242 77.3908 38.1782 77.2349C36.1319 77.0791 34.1295 77.666 32.7241 78.8755C31.3124 80.0844 30.6124 81.8163 30.6665 83.6821C30.6913 83.7379 30.691 84.0391 30.6948 84.2544C30.699 84.4721 30.6976 84.7147 30.6948 84.9478C30.7808 89.2377 29.2457 94.488 28.5776 95.1362C27.8238 96.4823 22.8696 96.1264 19.0386 94.355C18.5979 94.171 18.0825 93.9225 17.771 93.7827C17.0321 93.3807 16.1179 93.2922 15.2593 93.4956C15.1032 93.533 14.9522 93.5822 14.8052 93.6372C12.9833 87.7467 12.0015 81.4866 12.0015 74.9976C12.0015 71.559 12.278 68.185 12.8081 64.896C15.8045 67.7973 19.857 70.2727 25.1108 70.4058C31.8239 70.2147 36.1939 67.3318 40.3657 64.4214C40.8238 64.074 41.1849 63.8181 41.772 63.2925C43.2266 62.1131 44.0704 60.4604 44.0151 58.6021C43.9656 56.7495 43.0212 54.8418 41.4927 53.397C39.9639 51.9521 38.0054 51.1163 36.1528 51.1714C34.2941 51.221 32.6917 52.1572 31.5962 53.6763C31.6495 53.6416 31.5681 53.7469 31.5386 53.7964C31.4968 53.8586 31.4475 53.9282 31.4038 53.9907C31.3033 54.1287 31.204 54.2633 31.0981 54.4009C29.06 57.0656 26.184 59.4742 24.3813 60.106C22.4831 60.7961 19.4592 60.1798 16.8169 58.5356C16.668 58.4459 16.512 58.3447 16.3716 58.2534C16.2418 58.1734 16.0509 58.0244 16.019 58.0327C15.5979 57.6839 15.0704 57.4552 14.5083 57.3462C16.474 50.5982 19.5375 44.3179 23.4937 38.7124C23.8305 38.9741 24.2042 39.1731 24.5972 39.2817C25.1661 39.3984 25.5422 39.472 26.0005 39.5454C29.6434 39.8786 34.4114 40.9889 39.2534 35.644C42.7912 29.5233 41.7446 25.667 41.021 21.938C42.6228 20.91 44.2746 19.9533 45.9712 19.0708C46.842 21.646 47.8602 24.1671 49.4224 26.7378C51.0931 29.0698 52.8365 32.7551 59.0083 33.4038C66.054 32.7692 67.5951 29.1774 69.8364 26.9731C71.851 24.5121 73.4157 22.0589 74.8638 19.5083C75.1827 18.9364 75.4712 18.4242 75.8179 17.7134C76.6764 16.0561 76.7978 14.1913 76.0522 12.4888C75.9803 12.3235 75.8988 12.1617 75.812 12.0024ZM123.25 78.0444C121.581 77.229 119.71 77.2657 118.015 78.0454C117.198 78.3965 116.655 78.6794 116.024 79.0024C110.643 82.2961 104.209 84.5701 101.141 94.3394C100.096 103.478 105.49 107.986 109.489 111.783C110.009 112.227 110.479 112.608 111.114 113.089C111.806 113.575 112.706 113.767 113.584 113.66C114.465 113.55 115.252 113.149 115.803 112.509C116.354 111.869 116.634 111.032 116.613 110.145C116.589 109.261 116.265 108.399 115.682 107.787C115.443 107.499 115.048 107.039 114.735 106.635C111.854 103.171 110.049 98.1972 111.223 96.8267C111.784 95.7053 116.802 92.74 121.254 91.6099C121.495 91.5417 121.746 91.4716 121.973 91.4146C122.199 91.3573 122.506 91.2751 122.581 91.2798C124.396 90.849 125.892 89.7242 126.704 88.0522C127.517 86.3863 127.581 84.3097 126.916 82.3804C126.25 80.4509 124.919 78.8544 123.25 78.0444ZM59.6138 88.1265C57.7844 87.7439 55.9611 88.1295 54.5347 89.3218C53.109 90.5069 52.1967 92.4018 52.0093 94.4653C51.822 96.5287 52.3782 98.5566 53.5669 99.979C54.7553 101.409 56.4797 102.116 58.3481 102.069C58.5617 102.031 59.0927 102.039 59.5054 102.042C63.7244 102.112 68.2055 102.774 71.5991 104.245C74.6899 105.617 77.6108 107.991 79.7788 110.915C79.9071 111.089 80.0275 111.256 80.145 111.427C80.2542 111.579 80.3934 111.814 80.4341 111.836C80.8341 112.568 81.5528 113.133 82.3794 113.43C83.2089 113.726 84.0791 113.728 84.8501 113.416C85.6212 113.103 86.2452 112.496 86.6353 111.707C87.0223 110.918 87.1441 110.011 86.9224 109.208C86.6599 108.44 86.4712 107.963 86.231 107.394C84.271 102.848 81.2286 98.7678 77.105 95.561C72.138 91.8518 66.9066 89.963 61.4868 88.5356C60.8848 88.3902 60.4039 88.2632 59.6138 88.1265ZM66.0786 44.7388C64.2413 44.4993 62.1852 45.1559 60.4917 46.4634C58.7982 47.7711 57.6428 49.5949 57.4097 51.4331C57.1692 53.2772 57.8693 54.9865 59.228 56.2827C59.1945 56.2148 59.2762 56.2982 59.313 56.3247C59.3593 56.3636 59.4123 56.413 59.4595 56.4546C59.5636 56.5518 59.6656 56.6471 59.77 56.7505C61.7988 58.7424 63.4907 61.4354 63.897 62.8735C64.3406 64.4465 63.6412 66.929 62.063 69.0317C61.978 69.1495 61.8813 69.2743 61.7964 69.3843C61.7225 69.4863 61.576 69.6377 61.604 69.6528C61.0295 70.2213 60.6889 71.0571 60.6167 71.9185C60.547 72.7831 60.752 73.6033 61.2261 74.2554C61.7002 74.9074 62.4172 75.3548 63.2612 75.5552C64.1029 75.7522 65.0023 75.6861 65.7202 75.3149C66.302 74.9506 66.6226 74.7385 67.0347 74.4438C70.2566 72.1042 73.3246 68.6134 74.1968 63.5493C74.9149 57.5314 73.0537 53.2724 71.1079 49.1499C70.8677 48.6909 70.7043 48.3422 70.3101 47.7251C69.3997 46.0828 67.9235 44.9726 66.0786 44.7388ZM99.4331 48.5591C97.7591 47.7642 95.6131 47.7484 93.6128 48.4644C91.6124 49.1804 89.9637 50.5552 89.1743 52.2319C88.3767 53.9118 88.5031 55.7581 89.3813 57.4155C89.3983 57.3755 89.497 57.5769 89.563 57.6929C89.6333 57.8206 89.7073 57.967 89.7769 58.104C91.1999 60.7076 91.7189 64.2783 91.8657 64.6128C92.1481 65.4922 89.5718 67.3154 86.6997 67.8403C86.3881 67.9129 85.9744 67.9725 85.8081 68.0239C84.9979 68.0979 84.2021 68.5274 83.5991 69.1509C82.9958 69.7783 82.635 70.5491 82.5923 71.3599C82.5497 72.1704 82.8279 72.9744 83.3618 73.6616C83.896 74.3449 84.643 74.8556 85.4409 75.0142C86.0805 75.0982 86.4919 75.1445 87.0024 75.1841C91.0077 75.3531 96.1998 75.4299 100.546 70.2759C104.633 63.769 103.374 59.0049 102.899 54.3423C102.807 53.8167 102.747 53.4043 102.562 52.6968C102.189 50.8585 101.116 49.3511 99.4331 48.5591ZM97.3999 21.6675C93.2272 20.5217 89.4723 18.0492 81.9917 21.1704C76.0692 25.2858 76.5589 30.1574 76.4214 33.813C76.4353 34.2768 76.4598 34.6589 76.5024 35.2378C76.6154 36.0343 77.0819 36.8042 77.7271 37.3765C78.3763 37.9487 79.1514 38.2765 79.9536 38.2896C80.7558 38.3024 81.5411 37.9998 82.2085 37.4487C82.8717 36.8975 83.3629 36.1425 83.5015 35.3501C83.5636 35.1982 83.6464 34.8254 83.7339 34.5464C84.1155 33.2595 84.6633 32.0037 85.2866 31.1772C85.8995 30.3127 86.5955 30.1528 86.5376 30.5063C86.0663 30.931 86.8854 30.9936 87.8608 31.5825C88.8471 32.1217 90.0211 32.905 91.0659 33.7593C91.1753 33.8494 91.2889 33.9433 91.3853 34.0298C91.4745 34.1116 91.6349 34.2387 91.5894 34.2456C93.0261 35.4574 94.7991 35.9677 96.604 35.519C98.4039 35.0787 100.089 33.7159 101.202 31.8755C102.314 30.0351 102.738 27.9091 102.291 26.1108C101.849 24.3044 100.572 22.9728 98.8315 22.2642C98.2226 21.9706 97.8583 21.8437 97.3999 21.6675ZM30.7104 30.1958C30.6338 30.4112 30.3707 30.726 29.9058 31.0044C30.1713 30.7322 30.44 30.4631 30.7104 30.1958ZM58.3345 22.9282C58.4346 22.9368 58.6192 22.9316 58.8804 22.9692C59.0917 23.0298 59.1967 23.1492 59.1167 23.186C59.0424 23.2261 58.8174 23.1782 58.5444 23.0415C58.477 23.0083 58.4064 22.9705 58.3345 22.9282ZM62.4087 13.9263C61.7253 16.1001 60.87 18.2918 59.936 20.1147C59.475 21.0192 58.9701 21.8395 58.5854 22.3687C58.4063 22.6212 58.2592 22.7968 58.2485 22.8745C57.7419 22.5601 57.1428 22.0465 56.5718 21.4497C55.1783 19.9936 53.8518 18.0786 52.6929 16.0991C52.687 16.0891 52.6812 16.0789 52.6753 16.0688C55.8753 14.8558 59.1999 13.8966 62.6245 13.2144C62.5556 13.4494 62.4778 13.7021 62.4087 13.9263Z" fill="url(#paint0_linear_138_737)"/>
<defs>
<linearGradient id="paint0_linear_138_737" x1="75" y1="12.0024" x2="75" y2="137.998" gradientUnits="userSpaceOnUse">
<stop stop-color="#FA8383"/>
<stop offset="0.490385" stop-color="#D76B72"/>
<stop offset="1" stop-color="#46072E"/>
</linearGradient>
</defs>
</svg>
