<svg width="150" height="150" viewBox="0 0 150 150" fill="none" xmlns="http://www.w3.org/2000/svg">
<path d="M47.7679 63.777C47.7679 63.777 51.2305 63.6358 53.3175 62.9721C56.431 61.9818 60.4332 58.5721 60.4332 58.5721" stroke="#773DFF" stroke-width="0.7"/>
<path d="M46.3627 65.6595C46.3627 65.6595 47.2111 69.0196 47.1676 71.2091C47.1028 74.4757 44.9706 79.2817 44.9706 79.2817" stroke="#773DFF" stroke-width="0.7"/>
<circle cx="48.239" cy="65.6739" r="3.99561" transform="rotate(126.747 48.239 65.6739)" fill="#919AFF"/>
<path d="M44.2705 56.7457C44.2705 56.7457 46.8488 56.8757 47.5492 55.7316C48.1734 54.7119 47.3037 52.6833 47.3037 52.6833" stroke="#773DFF" stroke-width="0.5"/>
<path d="M41.4768 53.4208C41.4768 53.4208 44.0551 53.5508 44.7555 52.4066C45.3797 51.3869 44.51 49.3584 44.51 49.3584" stroke="#773DFF" stroke-width="0.5"/>
<path d="M36.9578 51.4269C36.9578 51.4269 39.5361 51.5569 40.2364 50.4128C40.8607 49.393 39.991 47.3645 39.991 47.3645" stroke="#773DFF" stroke-width="0.5"/>
<path d="M38.3032 64.7373C38.3032 64.7373 39.1604 67.1725 38.2624 68.169C37.462 69.0572 35.27 68.7997 35.27 68.7997" stroke="#773DFF" stroke-width="0.5"/>
<path d="M34.3214 63.0042C34.3214 63.0042 35.1786 65.4393 34.2806 66.4359C33.4802 67.3241 31.2882 67.0666 31.2882 67.0666" stroke="#773DFF" stroke-width="0.5"/>
<path d="M31.1257 59.2378C31.1257 59.2378 31.9829 61.6729 31.0849 62.6695C30.2845 63.5577 28.0925 63.3002 28.0925 63.3002" stroke="#773DFF" stroke-width="0.5"/>
<path d="M28.9865 54.1243C28.9865 54.1243 26.2816 53.1807 24.4748 53.0134C23.0849 52.8847 20.9014 53.0927 20.9014 53.0927" stroke="#773DFF" stroke-width="0.8"/>
<path d="M28.6256 51.8162C28.6256 51.8162 25.4302 50.6841 23.2949 50.4068C21.123 50.1248 17.6869 50.4205 17.6869 50.4205" stroke="#773DFF" stroke-width="0.8"/>
<path d="M32.1998 49.8212C32.1998 49.8212 30.5265 47.4958 29.8527 45.8109C29.3345 44.5149 28.9136 42.3623 28.9136 42.3623" stroke="#773DFF" stroke-width="0.8"/>
<path d="M29.8844 50.13C29.8844 50.13 27.8911 47.3879 27.0185 45.4193C26.1311 43.4171 25.4384 40.0386 25.4384 40.0386" stroke="#773DFF" stroke-width="0.8"/>
<path d="M46.2379 64.1796C45.2333 65.5251 43.3305 66.1173 40.9237 65.8435C38.5311 65.5713 35.7433 64.4459 33.1492 62.509C30.5552 60.5721 28.6847 58.2194 27.744 56.0028C26.7977 53.773 26.8249 51.7803 27.8295 50.4348C28.8342 49.0893 30.7371 48.497 33.1438 48.7709C35.5363 49.0431 38.3236 50.1681 40.9175 52.1048C43.5116 54.0417 45.3827 56.3949 46.3235 58.6116C47.2698 60.8413 47.2425 62.834 46.2379 64.1796Z" fill="#919AFF" stroke="#773DFF"/>
<path d="M127.243 72.7101C127.243 72.7101 130.266 74.4046 132.391 74.9331C135.562 75.7215 140.758 74.9152 140.758 74.9152" stroke="#773DFF" stroke-width="0.7"/>
<path d="M125.06 73.5764C125.06 73.5764 124.021 76.8827 122.837 78.7246C121.07 81.4727 116.735 84.4483 116.735 84.4483" stroke="#773DFF" stroke-width="0.7"/>
<circle cx="126.65" cy="74.5725" r="3.99561" transform="rotate(158.355 126.65 74.5725)" fill="#919AFF"/>
<path d="M127.949 64.8885C127.949 64.8885 130.077 66.3506 131.273 65.7432C132.339 65.2019 132.662 63.0185 132.662 63.0185" stroke="#773DFF" stroke-width="0.5"/>
<path d="M127.313 60.5929C127.313 60.5929 129.441 62.0549 130.637 61.4476C131.703 60.9063 132.025 58.7229 132.025 58.7229" stroke="#773DFF" stroke-width="0.5"/>
<path d="M124.509 56.5262C124.509 56.5262 126.637 57.9882 127.833 57.3809C128.899 56.8396 129.221 54.6562 129.221 54.6562" stroke="#773DFF" stroke-width="0.5"/>
<path d="M118.679 68.5676C118.679 68.5676 118.133 71.0907 116.846 71.4688C115.699 71.8058 113.967 70.4377 113.967 70.4377" stroke="#773DFF" stroke-width="0.5"/>
<path d="M116.196 65.0043C116.196 65.0043 115.65 67.5275 114.363 67.9056C113.216 68.2425 111.484 66.8744 111.484 66.8744" stroke="#773DFF" stroke-width="0.5"/>
<path d="M115.449 60.1218C115.449 60.1218 114.902 62.6449 113.615 63.023C112.468 63.36 110.736 61.9919 110.736 61.9919" stroke="#773DFF" stroke-width="0.5"/>
<path d="M116.307 54.646C116.307 54.646 114.497 52.4246 113.046 51.3352C111.93 50.4972 109.961 49.53 109.961 49.53" stroke="#773DFF" stroke-width="0.8"/>
<path d="M117.209 52.4906C117.209 52.4906 115.081 49.8517 113.407 48.4964C111.706 47.118 108.624 45.569 108.624 45.569" stroke="#773DFF" stroke-width="0.8"/>
<path d="M121.298 52.665C121.298 52.665 121.092 49.8077 121.401 48.0196C121.639 46.6442 122.409 44.5904 122.409 44.5904" stroke="#773DFF" stroke-width="0.8"/>
<path d="M119.165 51.7148C119.165 51.7148 118.904 48.3348 119.193 46.2009C119.486 44.0306 120.667 40.7902 120.667 40.7902" stroke="#773DFF" stroke-width="0.8"/>
<path d="M125.729 72.2506C124.168 72.87 122.237 72.3771 120.331 70.8825C118.436 69.3967 116.652 66.9772 115.457 63.968C114.263 60.959 113.903 57.975 114.264 55.5941C114.627 53.1991 115.694 51.5164 117.255 50.897C118.816 50.2776 120.747 50.7705 122.653 52.265C124.548 53.7508 126.332 56.1697 127.526 59.1786C128.72 62.1878 129.081 65.1725 128.72 67.5534C128.357 69.9484 127.29 71.6312 125.729 72.2506Z" fill="#919AFF" stroke="#773DFF"/>
<path d="M22.2651 95.2328C22.2651 95.2328 18.8612 95.8835 16.8951 96.848C13.9618 98.2868 10.5066 102.25 10.5066 102.25" stroke="#773DFF" stroke-width="0.7"/>
<path d="M23.3773 93.1638C23.3773 93.1638 22.0424 89.9657 21.7622 87.7938C21.3442 84.5534 22.7438 79.4853 22.7438 79.4853" stroke="#773DFF" stroke-width="0.7"/>
<circle cx="21.519" cy="93.4262" r="3.99561" transform="rotate(-61.7397 21.519 93.4262)" fill="#919AFF"/>
<path d="M26.7619 101.671C26.7619 101.671 24.1926 101.923 23.6688 103.158C23.2019 104.259 24.3614 106.137 24.3614 106.137" stroke="#773DFF" stroke-width="0.5"/>
<path d="M30.0157 104.547C30.0157 104.547 27.4464 104.799 26.9225 106.034C26.4557 107.135 27.6152 109.013 27.6152 109.013" stroke="#773DFF" stroke-width="0.5"/>
<path d="M34.7799 105.852C34.7799 105.852 32.2107 106.104 31.6868 107.339C31.2199 108.44 32.3795 110.318 32.3795 110.318" stroke="#773DFF" stroke-width="0.5"/>
<path d="M31.4844 92.8858C31.4844 92.8858 30.2772 90.6038 31.0183 89.4856C31.6788 88.489 33.8848 88.4202 33.8848 88.4202" stroke="#773DFF" stroke-width="0.5"/>
<path d="M35.6783 94.0132C35.6783 94.0132 34.4712 91.7312 35.2122 90.6131C35.8727 89.6165 38.0788 89.5476 38.0788 89.5476" stroke="#773DFF" stroke-width="0.5"/>
<path d="M39.3944 97.2669C39.3944 97.2669 38.1872 94.9849 38.9283 93.8667C39.5888 92.8701 41.7948 92.8013 41.7948 92.8013" stroke="#773DFF" stroke-width="0.5"/>
<path d="M42.2652 102.008C42.2652 102.008 45.0798 102.542 46.8916 102.441C48.2852 102.363 50.4141 101.835 50.4141 101.835" stroke="#773DFF" stroke-width="0.8"/>
<path d="M42.9628 104.237C42.9628 104.237 46.2903 104.886 48.4432 104.845C50.6328 104.803 53.9877 104.004 53.9877 104.004" stroke="#773DFF" stroke-width="0.8"/>
<path d="M39.7221 106.738C39.7221 106.738 41.7203 108.791 42.6353 110.358C43.3391 111.563 44.0731 113.63 44.0731 113.63" stroke="#773DFF" stroke-width="0.8"/>
<path d="M41.9668 106.091C41.9668 106.091 44.343 108.509 45.4965 110.327C46.6697 112.176 47.8534 115.415 47.8534 115.415" stroke="#773DFF" stroke-width="0.8"/>
<path d="M23.7188 94.609C24.5139 93.1299 26.3085 92.2634 28.7293 92.179C31.1359 92.0951 34.0592 92.7968 36.9108 94.3296C39.7622 95.8625 41.9594 97.9134 43.217 99.9669C44.482 102.033 44.7492 104.007 43.9541 105.487C43.159 106.965 41.3644 107.832 38.9437 107.917C36.5372 108 33.6144 107.299 30.763 105.766C27.9115 104.233 25.7136 102.182 24.456 100.129C23.191 98.0629 22.9238 96.088 23.7188 94.609Z" fill="#919AFF" stroke="#773DFF"/>
<path d="M93.5886 64.8654C93.5886 64.8654 96.9926 65.5161 98.9587 66.4805C101.892 67.9194 105.347 71.8825 105.347 71.8825" stroke="#773DFF" stroke-width="0.7"/>
<path d="M92.4765 62.7964C92.4765 62.7964 93.8115 59.5983 94.0917 57.4264C94.5097 54.186 93.1101 49.1179 93.1101 49.1179" stroke="#773DFF" stroke-width="0.7"/>
<circle cx="3.99561" cy="3.99561" r="3.99561" transform="matrix(-0.473479 -0.880805 -0.880805 0.473479 99.7457 64.6865)" fill="#919AFF"/>
<path d="M89.092 71.3033C89.092 71.3033 91.6613 71.5552 92.1851 72.7902C92.652 73.8909 91.4925 75.7688 91.4925 75.7688" stroke="#773DFF" stroke-width="0.5"/>
<path d="M85.8382 74.1798C85.8382 74.1798 88.4075 74.4317 88.9313 75.6667C89.3982 76.7673 88.2387 78.6453 88.2387 78.6453" stroke="#773DFF" stroke-width="0.5"/>
<path d="M81.0739 75.485C81.0739 75.485 83.6432 75.7369 84.1671 76.9718C84.6339 78.0725 83.4744 79.9505 83.4744 79.9505" stroke="#773DFF" stroke-width="0.5"/>
<path d="M84.3695 62.5186C84.3695 62.5186 85.5767 60.2366 84.8356 59.1184C84.1751 58.1218 81.9691 58.053 81.9691 58.053" stroke="#773DFF" stroke-width="0.5"/>
<path d="M80.1752 63.6455C80.1752 63.6455 81.3824 61.3636 80.6413 60.2454C79.9808 59.2488 77.7748 59.18 77.7748 59.18" stroke="#773DFF" stroke-width="0.5"/>
<path d="M76.459 66.8994C76.459 66.8994 77.6662 64.6175 76.9251 63.4993C76.2646 62.5027 74.0586 62.4339 74.0586 62.4339" stroke="#773DFF" stroke-width="0.5"/>
<path d="M73.5886 71.6405C73.5886 71.6405 70.7741 72.1747 68.9623 72.0735C67.5687 71.9956 65.4398 71.4676 65.4398 71.4676" stroke="#773DFF" stroke-width="0.8"/>
<path d="M72.8907 73.8701C72.8907 73.8701 69.5633 74.5182 67.4103 74.4773C65.2207 74.4357 61.8658 73.6361 61.8658 73.6361" stroke="#773DFF" stroke-width="0.8"/>
<path d="M76.1314 76.3709C76.1314 76.3709 74.1333 78.4238 73.2182 79.9908C72.5144 81.1962 71.7804 83.2631 71.7804 83.2631" stroke="#773DFF" stroke-width="0.8"/>
<path d="M73.8871 75.7235C73.8871 75.7235 71.5109 78.1414 70.3574 79.9597C69.1842 81.809 68.0005 85.0483 68.0005 85.0483" stroke="#773DFF" stroke-width="0.8"/>
<path d="M92.1346 64.2416C91.3395 62.7625 89.5449 61.8959 87.1241 61.8116C84.7175 61.7277 81.7941 62.4293 78.9426 63.9622C76.0912 65.495 73.894 67.546 72.6364 69.5995C71.3714 71.6652 71.1042 73.64 71.8993 75.1191C72.6944 76.5981 74.489 77.4647 76.9097 77.5491C79.3162 77.6329 82.239 76.9316 85.0904 75.3989C87.9419 73.8661 90.1398 71.8148 91.3974 69.7612C92.6624 67.6955 92.9296 65.7206 92.1346 64.2416Z" fill="#919AFF" stroke="#773DFF"/>
<path d="M64.2299 27.5754C64.2299 27.5754 62.2145 24.756 61.4565 22.7015C60.3257 19.6362 60.5584 14.3836 60.5584 14.3836" stroke="#773DFF" stroke-width="0.7"/>
<path d="M63.6076 29.8404C63.6076 29.8404 60.4349 31.2347 58.7337 32.6138C56.1957 34.6712 53.7126 39.3057 53.7126 39.3057" stroke="#773DFF" stroke-width="0.7"/>
<circle cx="3.99561" cy="3.99561" r="3.99561" transform="matrix(-0.264875 0.964283 0.964283 0.264875 59.649 23.4573)" fill="#919AFF"/>
<path d="M71.9262 26.0171C71.9262 26.0171 70.2401 24.0623 70.7128 22.8069C71.1341 21.688 73.2691 21.1283 73.2691 21.1283" stroke="#773DFF" stroke-width="0.5"/>
<path d="M76.2662 26.179C76.2662 26.179 74.58 24.2241 75.0527 22.9687C75.4741 21.8498 77.609 21.2902 77.609 21.2902" stroke="#773DFF" stroke-width="0.5"/>
<path d="M80.6157 28.5213C80.6157 28.5213 78.9295 26.5664 79.4022 25.311C79.8236 24.1921 81.9585 23.6325 81.9585 23.6325" stroke="#773DFF" stroke-width="0.5"/>
<path d="M69.2849 35.6345C69.2849 35.6345 66.8367 36.4537 66.6018 37.7744C66.3924 38.9516 67.9419 40.5232 67.9419 40.5232" stroke="#773DFF" stroke-width="0.5"/>
<path d="M73.0985 37.7116C73.0985 37.7116 70.6503 38.5308 70.4154 39.8516C70.206 41.0287 71.7555 42.6004 71.7555 42.6004" stroke="#773DFF" stroke-width="0.5"/>
<path d="M78.0338 37.9204C78.0338 37.9204 75.5856 38.7396 75.3507 40.0603C75.1413 41.2374 76.6908 42.8091 76.6908 42.8091" stroke="#773DFF" stroke-width="0.5"/>
<path d="M83.3826 36.468C83.3826 36.468 85.7886 38.023 87.0304 39.3461C87.9856 40.3639 89.1625 42.2148 89.1625 42.2148" stroke="#773DFF" stroke-width="0.8"/>
<path d="M85.426 35.3357C85.426 35.3357 88.282 37.162 89.8124 38.6769C91.3688 40.2176 93.2459 43.1108 93.2459 43.1108" stroke="#773DFF" stroke-width="0.8"/>
<path d="M84.8052 31.2894C84.8052 31.2894 87.6679 31.1817 89.4114 30.6785C90.7525 30.2915 92.7097 29.3015 92.7097 29.3015" stroke="#773DFF" stroke-width="0.8"/>
<path d="M85.9834 33.3065C85.9834 33.3065 89.3715 33.1954 91.461 32.6749C93.5861 32.1455 96.6777 30.6171 96.6777 30.6171" stroke="#773DFF" stroke-width="0.8"/>
<path d="M64.8518 29.0299C64.407 30.6491 65.1083 32.5145 66.8026 34.2456C68.487 35.9666 71.0873 37.4754 74.2092 38.3329C77.3308 39.1903 80.3363 39.2214 82.6634 38.6024C85.0043 37.9796 86.5601 36.7343 87.0048 35.1151C87.4495 33.4959 86.7482 31.6304 85.054 29.8993C83.3697 28.1785 80.77 26.6698 77.6484 25.8123C74.5266 24.9548 71.5204 24.9236 69.1932 25.5426C66.8524 26.1653 65.2966 27.4107 64.8518 29.0299Z" fill="#919AFF" stroke="#773DFF"/>
<path d="M72.7481 103.82C72.7481 103.82 70.5633 101.13 68.7829 99.8545C66.1267 97.9521 61 96.7852 61 96.7852" stroke="#773DFF" stroke-width="0.7"/>
<path d="M75.0974 103.82C75.0974 103.82 77.2823 101.13 79.0627 99.8545C81.7189 97.9521 86.8455 96.7852 86.8455 96.7852" stroke="#773DFF" stroke-width="0.7"/>
<circle cx="73.9862" cy="102.307" r="3.99561" fill="#919AFF"/>
<path d="M69.207 110.829C69.207 110.829 67.7686 108.685 66.4328 108.808C65.2423 108.918 64.1372 110.829 64.1372 110.829" stroke="#773DFF" stroke-width="0.5"/>
<path d="M68.2137 115.057C68.2137 115.057 66.7753 112.913 65.4396 113.036C64.249 113.146 63.1439 115.057 63.1439 115.057" stroke="#773DFF" stroke-width="0.5"/>
<path d="M69.3199 119.871C69.3199 119.871 67.8815 117.727 66.5458 117.85C65.3552 117.96 64.2501 119.871 64.2501 119.871" stroke="#773DFF" stroke-width="0.5"/>
<path d="M79.0867 110.76C79.0867 110.76 80.5251 108.616 81.8609 108.74C83.0514 108.85 84.1565 110.76 84.1565 110.76" stroke="#773DFF" stroke-width="0.5"/>
<path d="M80.1737 115.057C80.1737 115.057 81.6121 112.913 82.9479 113.036C84.1384 113.146 85.2436 115.057 85.2436 115.057" stroke="#773DFF" stroke-width="0.5"/>
<path d="M79.0675 119.871C79.0675 119.871 80.5059 117.727 81.8417 117.85C83.0322 117.96 84.1374 119.871 84.1374 119.871" stroke="#773DFF" stroke-width="0.5"/>
<path d="M76.2504 124.644C76.2504 124.644 77.1125 127.376 78.0595 128.924C78.7879 130.114 80.2609 131.74 80.2609 131.74" stroke="#773DFF" stroke-width="0.8"/>
<path d="M74.6169 126.314C74.6169 126.314 75.6215 129.552 76.6769 131.429C77.7503 133.338 80.043 135.914 80.043 135.914" stroke="#773DFF" stroke-width="0.8"/>
<path d="M70.8797 124.644C70.8797 124.644 70.0175 127.376 69.0705 128.924C68.3421 130.114 66.8691 131.74 66.8691 131.74" stroke="#773DFF" stroke-width="0.8"/>
<path d="M72.5127 126.314C72.5127 126.314 71.5081 129.552 70.4527 131.429C69.3793 133.338 67.0866 135.914 67.0866 135.914" stroke="#773DFF" stroke-width="0.8"/>
<path d="M73.9862 104.805C75.6654 104.805 77.2784 105.976 78.4989 108.068C79.7123 110.148 80.4784 113.055 80.4784 116.292C80.4783 119.53 79.7122 122.436 78.4989 124.516C77.2784 126.608 75.6654 127.779 73.9862 127.779C72.307 127.779 70.694 126.608 69.4735 124.516C68.2602 122.436 67.4941 119.53 67.494 116.292C67.494 113.055 68.2602 110.148 69.4735 108.068C70.694 105.976 72.307 104.805 73.9862 104.805Z" fill="#919AFF" stroke="#773DFF"/>
<path d="M103.832 107.893C103.832 107.893 101.567 110.516 100.625 112.493C99.2185 115.442 98.9701 120.694 98.9701 120.694" stroke="#773DFF" stroke-width="0.7"/>
<path d="M103.419 105.581C103.419 105.581 100.387 103.903 98.8192 102.374C96.4799 100.093 94.4307 95.251 94.4307 95.251" stroke="#773DFF" stroke-width="0.7"/>
<circle cx="102.126" cy="106.94" r="3.99561" transform="rotate(-100.115 102.126 106.94)" fill="#919AFF"/>
<path d="M111.354 110.149C111.354 110.149 109.496 111.942 109.852 113.235C110.169 114.388 112.244 115.14 112.244 115.14" stroke="#773DFF" stroke-width="0.5"/>
<path d="M115.69 110.384C115.69 110.384 113.833 112.176 114.189 113.47C114.506 114.622 116.581 115.375 116.581 115.375" stroke="#773DFF" stroke-width="0.5"/>
<path d="M120.235 108.449C120.235 108.449 118.378 110.242 118.734 111.535C119.051 112.688 121.126 113.44 121.126 113.44" stroke="#773DFF" stroke-width="0.5"/>
<path d="M109.602 100.33C109.602 100.33 107.239 99.2906 107.126 97.954C107.025 96.7626 108.712 95.3391 108.712 95.3391" stroke="#773DFF" stroke-width="0.5"/>
<path d="M113.59 98.61C113.59 98.61 111.227 97.5704 111.114 96.2337C111.013 95.0424 112.7 93.6189 112.7 93.6189" stroke="#773DFF" stroke-width="0.5"/>
<path d="M118.523 98.8534C118.523 98.8534 116.16 97.8138 116.047 96.4772C115.946 95.2858 117.633 93.8623 117.633 93.8623" stroke="#773DFF" stroke-width="0.5"/>
<path d="M123.717 100.788C123.717 100.788 126.255 99.4596 127.612 98.2555C128.657 97.3292 129.998 95.5937 129.998 95.5937" stroke="#773DFF" stroke-width="0.8"/>
<path d="M125.648 102.103C125.648 102.103 128.659 100.546 130.322 99.177C132.013 97.785 134.146 95.0754 134.146 95.0754" stroke="#773DFF" stroke-width="0.8"/>
<path d="M124.66 106.075C124.66 106.075 127.501 106.444 129.191 107.104C130.492 107.612 132.35 108.777 132.35 108.777" stroke="#773DFF" stroke-width="0.8"/>
<path d="M126.018 104.174C126.018 104.174 129.382 104.595 131.415 105.304C133.483 106.026 136.422 107.83 136.422 107.83" stroke="#773DFF" stroke-width="0.8"/>
<path d="M104.584 106.502C104.289 104.849 105.158 103.055 107.004 101.486C108.838 99.9264 111.566 98.6616 114.753 98.093C117.94 97.5245 120.936 97.7683 123.196 98.5974C125.471 99.4315 126.906 100.814 127.201 102.467C127.496 104.12 126.627 105.914 124.781 107.483C122.947 109.042 120.22 110.307 117.033 110.876C113.846 111.444 110.85 111.201 108.589 110.371C106.315 109.537 104.879 108.155 104.584 106.502Z" fill="#919AFF" stroke="#773DFF"/>
</svg>
