<svg width="150" height="150" viewBox="0 0 150 150" fill="none" xmlns="http://www.w3.org/2000/svg">
<path d="M99.6157 79.6933L81.1695 90.5634C81.1695 90.5634 83.4054 84.0309 83.4054 79.6933C83.4054 75.3557 81.1695 68.8232 81.1695 68.8232L99.6157 79.6933Z" fill="url(#paint0_linear_138_1252)"/>
<path d="M105.22 70.2729C112.424 70.273 133.482 75.0931 133.483 79.6938C133.482 84.2946 112.424 89.1147 105.22 89.1147C98.0161 89.1147 92.1762 84.8967 92.176 79.6938C92.1761 74.491 98.016 70.273 105.22 70.2729ZM124.424 76.0698C123.624 76.0699 122.975 76.7188 122.975 77.519C122.975 78.3195 123.624 78.9692 124.424 78.9692C125.225 78.9692 125.873 78.3195 125.873 77.519C125.873 76.7188 125.224 76.0698 124.424 76.0698Z" fill="url(#paint1_linear_138_1252)"/>
<path d="M89.314 110.13L70.8678 121C70.8678 121 73.1037 114.467 73.1037 110.13C73.1037 105.792 70.8678 99.2598 70.8678 99.2598L89.314 110.13Z" fill="url(#paint2_linear_138_1252)"/>
<path d="M94.9185 100.709C102.123 100.709 123.181 105.529 123.181 110.13C123.181 114.731 102.122 119.551 94.9185 119.551C87.7145 119.551 81.8746 115.333 81.8745 110.13C81.8746 104.927 87.7145 100.709 94.9185 100.709ZM114.123 106.506C113.322 106.506 112.674 107.155 112.673 107.955C112.673 108.756 113.322 109.405 114.123 109.405C114.923 109.405 115.572 108.755 115.572 107.955C115.572 107.155 114.923 106.506 114.123 106.506Z" fill="url(#paint3_linear_138_1252)"/>
<path d="M40.9172 68.8234L22.4711 79.6935C22.4711 79.6935 24.707 73.161 24.707 68.8234C24.707 64.4859 22.4711 57.9534 22.4711 57.9534L40.9172 68.8234Z" fill="url(#paint4_linear_138_1252)"/>
<path d="M46.5215 59.4026C53.7255 59.4026 74.7838 64.2227 74.7842 68.8235C74.7837 73.4242 53.7255 78.2444 46.5215 78.2444C39.3176 78.2443 33.4777 74.0263 33.4775 68.8235C33.4776 63.6206 39.3176 59.4026 46.5215 59.4026ZM65.7256 65.1995C64.9253 65.1995 64.2766 65.8484 64.2764 66.6487C64.2764 67.4491 64.9252 68.0988 65.7256 68.0989C66.526 68.0989 67.1748 67.4491 67.1748 66.6487C67.1746 65.8484 66.5259 65.1995 65.7256 65.1995Z" fill="url(#paint5_linear_138_1252)"/>
<path d="M99.6157 53.6049L81.1695 64.475C81.1695 64.475 83.4054 57.9425 83.4054 53.6049C83.4054 49.2674 81.1695 42.7349 81.1695 42.7349L99.6157 53.6049Z" fill="url(#paint6_linear_138_1252)"/>
<path d="M105.22 44.1846C112.424 44.1846 133.482 49.0047 133.483 53.6055C133.482 58.2062 112.424 63.0263 105.22 63.0264C98.0161 63.0263 92.1762 58.8083 92.176 53.6055C92.1761 48.4026 98.016 44.1846 105.22 44.1846ZM124.424 49.9814C123.624 49.9815 122.975 50.6304 122.975 51.4307C122.975 52.2311 123.624 52.8808 124.424 52.8809C125.225 52.8809 125.873 52.2311 125.873 51.4307C125.873 50.6304 125.224 49.9814 124.424 49.9814Z" fill="url(#paint7_linear_138_1252)"/>
<path d="M45.2654 39.8701L26.8192 50.7402C26.8192 50.7402 29.0551 44.2076 29.0551 39.8701C29.0551 35.5325 26.8192 29 26.8192 29L45.2654 39.8701Z" fill="url(#paint8_linear_138_1252)"/>
<path d="M50.8694 30.4497C58.0734 30.4497 79.1317 35.2698 79.1321 39.8706C79.1316 44.4714 58.0734 49.2915 50.8694 49.2915C43.6655 49.2914 37.8256 45.0734 37.8254 39.8706C37.8255 34.6678 43.6655 30.4498 50.8694 30.4497ZM70.0735 36.2466C69.2731 36.2466 68.6243 36.8954 68.6243 37.6958C68.6243 38.4962 69.2731 39.145 70.0735 39.145C70.8739 39.145 71.5226 38.4962 71.5227 37.6958C71.5227 36.8954 70.8739 36.2466 70.0735 36.2466Z" fill="url(#paint9_linear_138_1252)"/>
<path d="M34.9639 96.7399L16.5176 107.61C16.5176 107.61 18.7535 101.077 18.7535 96.7399C18.7535 92.4024 16.5176 85.8699 16.5176 85.8699L34.9639 96.7399Z" fill="url(#paint10_linear_138_1252)"/>
<path d="M40.5679 87.3196C47.772 87.3196 68.8302 92.1397 68.8306 96.7405C68.83 101.341 47.7719 106.161 40.5679 106.161C33.364 106.161 27.5241 101.943 27.5239 96.7405C27.524 91.5377 33.3639 87.3197 40.5679 87.3196ZM59.772 93.1165C58.9716 93.1165 58.3229 93.7654 58.3228 94.5657C58.3228 95.3661 58.9715 96.0149 59.772 96.0149C60.5724 96.0149 61.2212 95.3661 61.2212 94.5657C61.221 93.7654 60.5723 93.1165 59.772 93.1165Z" fill="url(#paint11_linear_138_1252)"/>
<defs>
<linearGradient id="paint0_linear_138_1252" x1="99.6157" y1="79.6933" x2="81.1695" y2="79.6933" gradientUnits="userSpaceOnUse">
<stop offset="0.413462" stop-color="#6699FF"/>
<stop offset="1" stop-color="#5986DF"/>
</linearGradient>
<linearGradient id="paint1_linear_138_1252" x1="112.829" y1="70.2729" x2="112.829" y2="89.1147" gradientUnits="userSpaceOnUse">
<stop offset="0.413462" stop-color="#6699FF"/>
<stop offset="1" stop-color="#5986DF"/>
</linearGradient>
<linearGradient id="paint2_linear_138_1252" x1="89.314" y1="110.13" x2="70.8678" y2="110.13" gradientUnits="userSpaceOnUse">
<stop offset="0.413462" stop-color="#6699FF"/>
<stop offset="1" stop-color="#5986DF"/>
</linearGradient>
<linearGradient id="paint3_linear_138_1252" x1="102.528" y1="100.709" x2="102.528" y2="119.551" gradientUnits="userSpaceOnUse">
<stop offset="0.413462" stop-color="#6699FF"/>
<stop offset="1" stop-color="#5986DF"/>
</linearGradient>
<linearGradient id="paint4_linear_138_1252" x1="40.9172" y1="68.8234" x2="22.4711" y2="68.8234" gradientUnits="userSpaceOnUse">
<stop offset="0.413462" stop-color="#6699FF"/>
<stop offset="1" stop-color="#5986DF"/>
</linearGradient>
<linearGradient id="paint5_linear_138_1252" x1="54.1309" y1="59.4026" x2="54.1309" y2="78.2444" gradientUnits="userSpaceOnUse">
<stop offset="0.413462" stop-color="#6699FF"/>
<stop offset="1" stop-color="#5986DF"/>
</linearGradient>
<linearGradient id="paint6_linear_138_1252" x1="99.6157" y1="53.6049" x2="81.1695" y2="53.6049" gradientUnits="userSpaceOnUse">
<stop offset="0.413462" stop-color="#6699FF"/>
<stop offset="1" stop-color="#5986DF"/>
</linearGradient>
<linearGradient id="paint7_linear_138_1252" x1="112.829" y1="44.1846" x2="112.829" y2="63.0264" gradientUnits="userSpaceOnUse">
<stop offset="0.413462" stop-color="#6699FF"/>
<stop offset="1" stop-color="#5986DF"/>
</linearGradient>
<linearGradient id="paint8_linear_138_1252" x1="45.2654" y1="39.8701" x2="26.8192" y2="39.8701" gradientUnits="userSpaceOnUse">
<stop offset="0.413462" stop-color="#6699FF"/>
<stop offset="1" stop-color="#5986DF"/>
</linearGradient>
<linearGradient id="paint9_linear_138_1252" x1="58.4788" y1="30.4497" x2="58.4788" y2="49.2915" gradientUnits="userSpaceOnUse">
<stop offset="0.413462" stop-color="#6699FF"/>
<stop offset="1" stop-color="#5986DF"/>
</linearGradient>
<linearGradient id="paint10_linear_138_1252" x1="34.9639" y1="96.7399" x2="16.5176" y2="96.7399" gradientUnits="userSpaceOnUse">
<stop offset="0.413462" stop-color="#6699FF"/>
<stop offset="1" stop-color="#5986DF"/>
</linearGradient>
<linearGradient id="paint11_linear_138_1252" x1="48.1773" y1="87.3196" x2="48.1773" y2="106.161" gradientUnits="userSpaceOnUse">
<stop offset="0.413462" stop-color="#6699FF"/>
<stop offset="1" stop-color="#5986DF"/>
</linearGradient>
</defs>
</svg>
